<svg id="Isolation_Mode" data-name="Isolation Mode" xmlns="http://www.w3.org/2000/svg" viewBox="0 0 142.98 28.42"><title>wollson_logo</title><path d="M20.89,28.55L16.62,14.78,12.35,28.55H6.66L0.51,8.33H6L9.8,21.93l4.44-13.6H19l4.44,13.6,3.77-13.6h5.52L26.54,28.55H20.89Z" transform="translate(-0.51 -0.63)"/><path d="M59.36,28.55V0.63h5.32V28.55H59.36Z" transform="translate(-0.51 -0.63)"/><path d="M69.95,28.55V0.63h5.32V28.55H69.95Z" transform="translate(-0.51 -0.63)"/><path d="M78.78,25.91l2.13-3.45a13.89,13.89,0,0,0,7.16,2.49c2.3,0,3.39-.92,3.39-2.18,0-3.35-12-.63-12-8.58,0-3.39,3-6.36,8.29-6.36a12.92,12.92,0,0,1,8.16,2.76l-2,3.43a10.7,10.7,0,0,0-6.11-2.14c-1.93,0-3.18.88-3.18,2,0,3,12,.5,12,8.66,0,3.68-3.14,6.49-8.75,6.49A13.61,13.61,0,0,1,78.78,25.91Z" transform="translate(-0.51 -0.63)"/><path d="M138.18,28.55V16.33c0-2.8-1.47-3.77-3.73-3.77a5.76,5.76,0,0,0-4.6,2.39v13.6h-5.32V8.33h4.64L129.85,11a9.25,9.25,0,0,1,7.07-3.14c4.44,0,6.57,2.51,6.57,6.45V28.55h-5.31Z" transform="translate(-0.51 -0.63)"/><path d="M44.71,7.83A10.24,10.24,0,0,0,34,18.42,10.25,10.25,0,0,0,44.71,29,10.26,10.26,0,0,0,55.42,18.42,10.25,10.25,0,0,0,44.71,7.83Zm0,16.49c-3.31,0-5.15-2.72-5.15-5.9s1.84-5.86,5.15-5.86,5.19,2.72,5.19,5.86S48,24.32,44.71,24.32Z" transform="translate(-0.51 -0.63)"/><path d="M109.88,7.83A10.24,10.24,0,0,0,99.21,18.42a10.69,10.69,0,0,0,21.39,0A10.25,10.25,0,0,0,109.88,7.83Zm0,16.49c-3.31,0-5.15-2.72-5.15-5.9s1.84-5.86,5.15-5.86,5.19,2.72,5.19,5.86S113.19,24.32,109.88,24.32Z" transform="translate(-0.51 -0.63)"/></svg>