<svg id="Layer_1" data-name="Layer 1" xmlns="http://www.w3.org/2000/svg" viewBox="0 0 150 65"><defs><style>.cls-1,.cls-2{fill:#717989;}.cls-2{fill-rule:evenodd;}</style></defs><title>client logos</title><rect class="cls-1" x="136.25" y="21.84" width="2.23" height="0.17"/><path class="cls-2" d="M137.86,21.46c.27,0,.38-.14.38-.44v-.77c0-.3-.11-.43-.38-.43s-.39.13-.39.43V21C137.47,21.32,137.58,21.46,137.86,21.46Zm-.13-1.27c0-.11,0-.16.13-.16s.12,0,.12.16v.9q0,.15-.12.15c-.09,0-.13,0-.13-.15Z"/><path class="cls-2" d="M137.79,22.4c-.27,0-.38.14-.38.44v.76c0,.3.11.44.38.44s.39-.14.39-.44v-.76C138.18,22.54,138.07,22.4,137.79,22.4Zm.13,1.27c0,.1,0,.15-.13.15s-.12-.05-.12-.15v-.9c0-.11,0-.15.12-.15s.13,0,.13.15Z"/><path class="cls-2" d="M122.82,22.3l0,0c.12,0,.13.1.09.17l.08.09.07.08h.12c0,.09,0,.08,0,.14a.49.49,0,0,1,.08.1l0,0h0c.1-.09.2,0,.24.09a.1.1,0,0,1-.1.06l.1.11a.1.1,0,0,0,.07,0s0,0,.07,0h0a.35.35,0,0,0,.06-.09.23.23,0,0,0-.14-.09,1.05,1.05,0,0,1,.06-.21.63.63,0,0,1,.17.19l0-.05v0h0c.1-.14.1-.15.21-.29l.07-.09,0,0c0-.12.09-.22.19-.19a.19.19,0,0,0,0-.19c-.12-.14-.14-.12-.25-.26l-.11-.14a.12.12,0,0,1-.17,0s0-.06.09-.06l0-.06c-.11-.14-.09-.16-.21-.3a.08.08,0,0,0-.14,0l-.07.08h.08c0,.12-.08.15-.14.1l-.1.12a.34.34,0,0,1-.06.06v.05h0a.7.7,0,0,0-.15.15l-.24.28a.14.14,0,0,0,0,.17Zm1.15-.16s0,0-.06,0,0,0,0-.06,0,0,.06,0S124,22.11,124,22.14Zm-.06-.36H124C124.14,21.91,123.87,22,123.91,21.78Zm-.06.84h.09v.09h-.09Zm-.09-.42c-.08,0-.13,0-.12-.09s0,0,0,0S123.77,22.12,123.76,22.2Zm-.15-.87h.06v.06h-.06Zm0,.27h.09c0,.07,0,.08,0,.12S123.6,21.67,123.61,21.6Zm.12.24c0,.09,0,.14-.15.12S123.61,21.82,123.73,21.84Zm-.21-.27c0,.15-.17.14-.18,0S123.45,21.56,123.52,21.57Zm-.18.21a.21.21,0,0,1,.15,0,.11.11,0,0,1-.15.09Zm0,.36v-.09C123.46,22,123.46,22.18,123.37,22.14Zm0,.18c.06,0,.08,0,.12,0v.09a.11.11,0,0,1-.15,0C123.34,22.38,123.38,22.38,123.37,22.32Zm-.27-.51h.15C123.3,22,123.08,22,123.1,21.81Zm.09.33s-.07-.05-.06-.12S123.26,22.08,123.19,22.14Zm0,.18q0,.16-.15.15Q123,22.29,123.22,22.32Zm-.36-.27c.06,0,.07.05.06.12s-.08,0-.12,0S122.86,22.09,122.86,22.05Z"/><path class="cls-2" d="M136.49,20.23v.08h.26V20.2c0-.1.05-.17.13-.17s.13.06.13.18-.19.51-.53,1v.21h.76v-.22h-.48c.43-.6.51-.79.51-1a.36.36,0,0,0-.37-.35A.39.39,0,0,0,136.49,20.23Z"/><path class="cls-2" d="M116.92,17.48c.21.1.34.27.54.36.24.44.67.73.9,1.2.1.21.22.45.32.68,0,0,0,.09,0,.12s.11.12.12.18a5.41,5.41,0,0,1,.15,1.07c0,.08.08.12.09.21a15.28,15.28,0,0,1,0,1.77c0,.26-.13.52-.18.8a3.17,3.17,0,0,1-.18.75c-.11.27-.27.57-.35.74s0,.08,0,.09a.47.47,0,0,1-.3.18c0,.19-.12.21-.12.36.21,0,.35-.28.42-.51.17-.05.23-.29.29-.44a.45.45,0,0,1,.06-.09,4.22,4.22,0,0,0,.21-.69,1.89,1.89,0,0,0,.09-.21c0-.16,0-.34.12-.48a6.75,6.75,0,0,1,.09-.83c0-.11,0-.22,0-.33s.08-.19.09-.27-.16-.24,0-.3.06.24,0,.36a2.34,2.34,0,0,1,.06,1.19c0,.14-.1.26-.12.39a4,4,0,0,1-.27,1.14c0,.13.06.13.09.2-.21.06-.23.31-.3.51-.19,0-.2.35-.38.54a1.81,1.81,0,0,1-.27.18c-.51.3-.53-.14-.39-.57-.61.28-.2,1.39-.12,1.94a1.78,1.78,0,0,1,.42.69.61.61,0,0,1,.27.3c.29.13.5.41.8.56s.46.13.54.36a5.19,5.19,0,0,1,1,.18c.11,0,.22,0,.33,0s.23.08.33.09a2.43,2.43,0,0,0,1.2-.15c0,.08.19.09.26.15s-.08.09-.09.18a2.49,2.49,0,0,0,.54,1.13c.06.05.18.09.27.15s.34.24.54.36a1.76,1.76,0,0,0,.42.24,3.89,3.89,0,0,0,.41.18,3.25,3.25,0,0,1,.45.06c.06,0,.09.07.15.09s.21,0,.3.06.15.09.24.12.14,0,.21,0,.29.27.51.3c.28.37.47.13.83-.06l.27-.12c.25-.1.46-.21.66-.27s.33,0,.44-.09c.34-.13.62-.38.9-.51.06,0,.15,0,.21-.06a1.36,1.36,0,0,1,.24-.24.25.25,0,0,1,.15-.29c.1-.05.27,0,.36-.09s.13-.45.29-.57a2.23,2.23,0,0,1,.24-.63,3.7,3.7,0,0,0,2.39-.21,4.9,4.9,0,0,0,.51-.21,4.87,4.87,0,0,0,.42-.35s.06,0,.09,0,.13-.15.24-.15a6.16,6.16,0,0,1,.77-1.05c0-.23.18-.4.24-.63s0-.28,0-.41a2.67,2.67,0,0,1,.21-.48c-.09-.17-.17-.52-.27-.66s-.23-.24-.33-.15c.25.1.5.74.15.84s-.88-.73-1-1-.25-.38-.06-.5c.2.11.19.36.29.56s.21.29.3.42.23.37.39.27c-.07-.2-.36-.31-.18-.6-.09-.07-.17,0-.3,0a5.81,5.81,0,0,1-.74-2.53.65.65,0,0,0,.06-.21c0-.1-.12-.13-.12-.24,0-.47.09-1,0-1.49.07-.05.08-.16.15-.21a2.6,2.6,0,0,1,.74-1.74c0-.14,0-.22,0-.29a5.6,5.6,0,0,1,1.2-1.23c.08,0,.17,0,.21,0s0-.14,0-.24a1.24,1.24,0,0,1-.36-.32c0-.09-.06-.16-.09-.24a2,2,0,0,1-.57-.78,2.85,2.85,0,0,1-.18-.54c0-.11-.12-.2-.15-.3s0-.34-.18-.44a3.85,3.85,0,0,1-.89.21,6.13,6.13,0,0,1-1.11-.18,8.09,8.09,0,0,0-.89-.42,1.65,1.65,0,0,0-.57-.39c0-.1-.14-.14-.18-.24s-.21-.09-.33-.12c-.16-.32-.56-.41-.86-.6h-.21a1.16,1.16,0,0,0-.24-.14,5.76,5.76,0,0,0-1.34-.12c-.1,0-.13.11-.24.12a1.73,1.73,0,0,0-1.35.5c-.21-.24-.59-.32-.83-.53a4.37,4.37,0,0,0-4,1.07,12.12,12.12,0,0,1-1.2.75,5,5,0,0,1-2,.21c-.11,0,0,.11-.15.09,0-.22-.28-.27-.44-.15a.45.45,0,0,0-.06.32c-.37.46-.55,1.11-1,1.5,0,.18-.17.24-.21.42-.07,0-.15,0-.15.11S117,17.29,116.92,17.48Zm1.26,10.09h-.06c0-.05,0-.05,0-.09S118.21,27.53,118.18,27.57Zm.56-1.58c-.3,0,0-.28,0,0Zm0,.75v.09a.08.08,0,0,1-.09-.09Zm-.12.24c.07,0,.08,0,.12,0S118.57,27.08,118.59,27Zm0,.23h.12c0,.1,0,.06,0,.15S118.58,27.32,118.59,27.21Zm-.23-.74c.06,0,.09,0,.08.09h-.08Zm0,.27h.06v.06h-.06Zm0,1.55c0-.09.12-.06.11,0S118.39,28.31,118.33,28.29Zm.09-.18h-.06V28s0,0,.08,0S118.42,28.08,118.42,28.11Zm-.06-.36c.06,0,.07,0,.11,0S118.33,27.85,118.36,27.75Zm.11-.18c0,.05,0,0-.11,0A.06.06,0,1,1,118.47,27.57Zm-.08-.27v-.06h0v.06Zm0-.32s0,0,0,0C118.59,27,118.37,27.16,118.39,27Zm.2,1.37c0-.08,0-.1.12-.09S118.67,28.36,118.59,28.35Zm.06-.24v-.06h.06v.06Zm.06-.27c-.12,0-.07-.07,0-.12S118.72,27.77,118.71,27.84Zm0-.3c-.1,0-.2,0-.18-.12S118.78,27.38,118.74,27.54Zm.24-1.25c-.06,0-.08,0-.12,0a.12.12,0,0,0,0-.09C119,26.16,119,26.21,119,26.29Zm-.09-.27v-.09C119,25.89,119,26.06,118.89,26Zm0,1.05V27H119v.06Zm0,.2c0-.11,0,.12,0,0Zm0,1.35v-.06c.06,0,.1,0,.09.06Zm0-.27c0-.08.12-.14,0-.18C119,28,119.05,28.43,118.89,28.35Zm0-2.54c-.07-.08,0-.2.06-.27S119,25.84,118.89,25.81ZM135.1,27s0,0-.09,0S135.07,27,135.1,27Zm-.33,0a.05.05,0,0,1,.09,0C134.89,27,134.75,27.05,134.77,27Zm0,.56s.07-.05.1,0S134.7,27.66,134.74,27.54Zm.1-9.64s0,0,0,0,0,0,0,.06,0,0-.05,0S134.84,17.93,134.84,17.9Zm-.3.54c.13,0,0,.18,0,0Zm-.27-.84s.08,0,.09,0S134.25,17.67,134.27,17.6Zm0,1.64c.08,0,.13,0,.12.09S134.26,19.32,134.27,19.24ZM119,18.65a.08.08,0,0,1,.06.09C118.91,18.76,118.91,18.69,119,18.65Zm-.06-1.2v-.09H119v.09Zm.18.75c0-.12.25-.07.18.06A.24.24,0,0,1,119.07,18.2Zm.06-.54a.21.21,0,0,1,.12,0c0,.08,0,.13-.09.12A.19.19,0,0,1,119.13,17.66Zm.12,1.82v.06C119.11,19.57,119.2,19.38,119.25,19.48Zm-.09.84V20.2c.08,0,.13,0,.12.09A.21.21,0,0,1,119.16,20.32Zm.18.89h-.06a0,0,0,0,0,0-.06c0-.07.1,0,.12,0S119.34,21.18,119.34,21.21Zm0,2.93a.21.21,0,0,1,.15,0C119.55,24.26,119.35,24.31,119.37,24.14Zm0,.33c0-.08,0-.13.09-.12S119.48,24.48,119.4,24.47Zm0,.42c.13,0,0,.18-.06.09S119.42,24.93,119.43,24.89Zm0-.15c0-.09,0-.13.15-.12S119.48,24.81,119.4,24.74Zm0-1.94s.11,0,.12,0S119.37,22.91,119.43,22.8Zm.06-1.26c-.08-.09.09.08,0,0Zm0-3.82h-.06v-.09h.09C119.56,17.68,119.52,17.68,119.52,17.72Zm0,1.55a.12.12,0,0,1-.12,0v-.12C119.48,19.18,119.53,19.2,119.52,19.27Zm-.06.42v.06h-.06v-.06Zm0,.3v.06h-.06V20Zm-.06.3c.09-.11.1.09,0,0Zm.09.45c.05.05,0,.11-.09.12S119.41,20.73,119.49,20.74Zm0,2.89c0,.09-.14.07-.12,0S119.45,23.62,119.49,23.63Zm-.33,1h.09v.09h-.09Zm.06.53c0,.1-.08.08-.09.15S119.14,25.14,119.22,25.15Zm0,.18c.11,0,.13.2,0,.21A.11.11,0,0,1,119.19,25.33Zm0,1.2h-.09v-.06C119.19,26.46,119.23,26.47,119.22,26.53Zm-.09-.54s0,0,0-.06,0,0,.06,0,0,0,0,.06S119.16,26,119.13,26Zm.15,1c0,.06,0,.11-.15.09V27A.17.17,0,0,1,119.28,27Zm0,.59c-.06.05,0,0-.12,0S119.28,27.46,119.25,27.57Zm-.09.54c0-.06,0-.08,0-.12s0,.05.09.06S119.23,28.12,119.16,28.11Zm0-.75a.22.22,0,0,1,0-.15.32.32,0,0,1,.15.21C119.25,27.44,119.22,27.38,119.16,27.36Zm.15-2.17c-.06,0-.06-.08-.06-.15h.09C119.37,25.13,119.36,25.11,119.31,25.19Zm.09,0s0,0,.09,0,0,.09-.12.08S119.39,25.19,119.4,25.15Zm0,.63v-.06s0,0,0,0S119.5,25.83,119.43,25.78Zm0,.12s0,.05.09.06,0,.1-.12.09a.21.21,0,0,1,0-.12A0,0,0,0,0,119.43,25.9Zm0,.51c.12,0,0,.18-.06.09S119.45,26.45,119.46,26.41Zm0-.21a.08.08,0,0,1,.06.09C119.39,26.31,119.39,26.24,119.43,26.2Zm0,.63c0-.08,0-.13.09-.12S119.48,26.84,119.4,26.83Zm.06.15c.05,0,.07.05.06.12h-.09C119.42,27,119.45,27,119.46,27Zm0,.65c-.06,0-.06-.07-.06-.15s.08,0,.12,0S119.49,27.57,119.49,27.63Zm.42-6.3s0-.06.12-.06S120,21.38,119.91,21.33Zm.12.15v.09h-.09c0-.05,0-.05,0-.09Zm0,.81v.06h-.06v-.06Zm-.06-.15v-.09C120,22,120,22.18,119.94,22.14Zm.09.45c0,.06,0,.08,0,.12A.06.06,0,1,1,120,22.59Zm-.06.21c.12,0,0,.21-.09.18S119.92,22.84,120,22.8Zm0-2.3c.08,0,.11.22,0,.21S119.91,20.55,120,20.5Zm0,.62c0-.09,0-.13.12-.11v.11Zm.06-4s.06,0,.06,0S120,17.19,120,17.15Zm0,2.09c-.09.11-.1-.09,0,0Zm0,.51v.06H120v-.06Zm0,.48c0,.13-.06.16-.15.18s0-.15.06-.21A.19.19,0,0,0,120,20.23Zm-.09-1.61h-.09c0-.07,0-.08,0-.12S119.93,18.56,119.94,18.62Zm0,5.43a2.14,2.14,0,0,1-.27-.06v-.12C119.8,23.89,119.94,23.9,119.94,24.05Zm0,1.64h.12v.12C120,25.83,119.91,25.8,119.94,25.69Zm.12.27s0,.05-.06.09-.07-.05-.06-.12S120,26,120.06,26Zm-.09-.54s0,0,.06.06,0,0,0,0S120,25.46,120,25.42Zm0-.21s.06-.05.09,0S119.93,25.33,120,25.21Zm.09-.44c-.09,0-.17,0-.15-.12S120.08,24.66,120.06,24.77Zm-.39-.06s.06-.06.09,0S119.63,24.82,119.67,24.71Zm.09.21V25h-.06v-.06Zm-.15-.69a.11.11,0,0,1,.18-.09C119.76,24.23,119.7,24.27,119.61,24.23Zm0,.92a.14.14,0,0,1,.15,0c0,.1-.07.1-.15.09Zm.06.54h.09v.15C119.7,25.85,119.69,25.78,119.7,25.69Zm.06.36c-.09,0-.11-.07-.06-.12S119.77,26,119.76,26.05Zm-.09-.57s0,0,.06,0S119.69,25.48,119.67,25.48Zm0,1.17c.1,0,.14.21,0,.18A.14.14,0,0,1,119.7,26.65Zm0-.06v-.12c.08,0,.1,0,.09.12Zm0-2.06s0-.08-.06-.09.22-.07.27,0S119.85,24.54,119.73,24.53Zm.3-.87H120V23.6H120Zm0,.45v.09h-.09v-.09Zm-.33-1.19c0-.05,0-.06,0-.09s.06,0,0,.09Zm0,.74c0-.12,0,.12,0,0Zm0-.48v-.06s0,0,0,0S119.77,23.23,119.7,23.18Zm-.06-.5c-.09-.09,0-.22.12-.12S119.73,22.69,119.64,22.68Zm0,4.62c0-.07.08-.06.12,0S119.65,27.34,119.61,27.3Zm.06.18c.08,0,.13,0,.12.09a.16.16,0,0,1-.12,0Zm0,1.64c.09-.08-.08.1,0,0Zm0-.74v-.06a0,0,0,0,0,0,0C119.82,28.28,119.8,28.43,119.73,28.38Zm.3,1H120V29.3H120Zm0-1v.06H120v-.06Zm-.06-.48v-.06c.06,0,0,0,.06.09S120,27.84,120,27.84Zm.06.75s0,0,0,0,0-.06,0-.09S120,28.55,120,28.59Zm0,.53c.1-.07-.07.11,0,0Zm0-.26a0,0,0,0,1,.06,0S120,28.89,120,28.86Zm-.12-1.79c0-.08,0-.1.09-.12s.09,0,.12.09A.11.11,0,0,1,119.88,27.07Zm.06-.24v-.09a.11.11,0,0,1,.15,0C120.1,26.83,120,26.83,119.94,26.83Zm0-3.47a.21.21,0,0,1,.15,0C120.14,23.48,119.92,23.5,119.94,23.36Zm0-1.58c.08,0,.17,0,.18.09S119.9,21.92,119.94,21.78Zm.27,6.36c0-.06,0,0,0-.12A.06.06,0,1,1,120.21,28.14Zm0,.45c0-.12,0,.12,0,0Zm0,.24c.06,0,.09,0,.09.06h-.09Zm.09.33s0,0-.06,0,0,0,0-.05,0,0,.06,0S120.3,29.12,120.3,29.16Zm0-1.83a.12.12,0,0,1-.12,0v-.12C120.28,27.24,120.34,27.26,120.33,27.33Zm-.15-.23V27a.18.18,0,0,1,.15,0C120.34,27.1,120.26,27.1,120.18,27.1Zm.12-.6c0,.06-.11.07-.09,0S120.29,26.47,120.3,26.5Zm-.06-.24s0,0,0-.06,0,0,.06,0,0,0,0,.06S120.27,26.26,120.24,26.26Zm0,.42c.06,0,.11,0,.09.15A.09.09,0,0,1,120.21,26.68Zm.15-.57c-.06.05-.16,0-.21-.06s.06-.14.18-.12S120.38,26,120.36,26.11Zm-.18-.84c0-.08.06-.06.06-.12s.06.06.06.12Zm.06.18c0-.11,0,.12,0,0Zm-.06-5s0,0,.06-.09,0,.05.09.06-.06,0-.06.09S120.22,20.48,120.18,20.47Zm.09.54v0h-.06v0Zm0,.86h-.06v-.06h.06Zm0,.24c.1-.07-.08.1,0,0Zm0,.18c.05,0,.06.05.06.12s-.08,0-.12,0S120.23,22.33,120.24,22.29Zm0,.54a1.33,1.33,0,0,1,.12.06c0,.08-.15.07-.18,0S120.23,22.87,120.24,22.83Zm0,1.31s0,0,0,0,.09,0,.09.12S120.2,24.22,120.21,24.14Zm.06-.81s0,.06,0,.09h-.09C120.19,23.36,120.26,23.38,120.27,23.33Zm0,1.53s.09,0,.09.12S120.17,24.94,120.24,24.86Zm0-.36a.17.17,0,0,1,0-.15h.12C120.37,24.47,120.29,24.48,120.21,24.5Zm0-2.87a.18.18,0,0,1,0-.15h.12C120.38,21.61,120.31,21.64,120.21,21.63Zm0-5.25s.08,0,.09,0S120.22,16.45,120.24,16.38Zm0,.24c.1,0,.07.19-.06.15S120.22,16.67,120.24,16.62Zm.06.5v.09h-.09v-.09Zm-.09,2.57a.12.12,0,0,0,.09,0c0,.1,0,.17-.12.15S120.17,19.74,120.21,19.69Zm.18,3.88s0,.06,0,.09S120.38,23.61,120.39,23.57Zm.18-.92c-.06.05-.23,0-.18-.09S120.58,22.54,120.57,22.65Zm-.18-.3c0-.09.14-.07.11,0S120.45,22.37,120.39,22.35Zm.09,1c0-.05.13,0,.09,0h-.07S120.49,23.4,120.48,23.39Zm.2.66v.06s0,0,0,0h-.05s0,0,0,0v-.06s0,0,0,0h.05S120.67,24.05,120.68,24.05Zm0,2.15c.09,0,.17,0,.15.09S120.68,26.35,120.68,26.2Zm.12.27v.06h-.06v-.06Zm-.38-1c.11,0,.32-.05.41,0A.21.21,0,0,1,120.42,25.42Zm.2.75c-.07-.05-.2-.15-.12-.27S120.62,26.05,120.62,26.17Zm-.2-.93s0,0,.06-.09S120.49,25.34,120.42,25.24Zm.32-.12c.05,0,.1.05.09.12a.17.17,0,0,1-.15,0C120.66,25.18,120.73,25.18,120.74,25.12Zm0-.26c.11,0,.07.19-.06.15A.13.13,0,0,1,120.77,24.86Zm-.06,1.1h.09v.09Q120.71,26.07,120.71,26Zm.12-.18h-.09v-.09h.12A.24.24,0,0,0,120.83,25.78Zm0-1s0-.06-.09-.06.06-.05.06-.09,0,.05.09.06S120.81,24.72,120.8,24.77Zm0-.63c.18,0-.1.14,0,0Zm.06-.45s-.14,0-.12-.09S120.84,23.61,120.83,23.69Zm0,.18V24c-.07,0-.12,0-.12-.09A.21.21,0,0,1,120.8,23.87Zm-.2.78a.12.12,0,0,1-.21.09A.13.13,0,0,1,120.6,24.65Zm-.15-.45s0,0,0,0S120.48,24.2,120.45,24.2Zm0-1.13h.15C120.61,23.22,120.37,23.22,120.42,23.07Zm.06-.12v-.09h.09V23Zm.09-1.05h-.09v-.12C120.55,21.77,120.57,21.82,120.57,21.9Zm-.18,3c.11,0,.08,0,.18,0a0,0,0,0,0,0,.06.14.14,0,0,1-.21.06Zm.18,3.13c0,.12-.15.12-.12,0Zm-.12-.15v-.12c.06,0,.07,0,.12,0S120.54,27.9,120.45,27.87Zm0,.75s0-.05,0-.09S120.52,28.71,120.45,28.62Zm0,.45a.08.08,0,0,1,.07.09C120.46,29.18,120.46,29.11,120.5,29.07Zm0-.18s0,0,0-.06h.07C120.58,28.89,120.52,28.88,120.48,28.89Zm0-1.76a.18.18,0,0,1,0-.15c.07,0,.06-.06.15,0a0,0,0,0,0,0,.06A.13.13,0,0,1,120.45,27.13Zm0-.33c0-.09.08-.14.18-.09A.11.11,0,0,1,120.42,26.8Zm.15-.33a.09.09,0,0,1-.09.06C120.46,26.46,120.52,26.47,120.57,26.47Zm-.09-.27h.12C120.63,26.42,120.38,26.34,120.48,26.2ZM120.8,28c0,.11-.07.14-.18.15A.17.17,0,0,1,120.8,28Zm-.09.81c.06,0,.1,0,.09.06h-.09Zm.06.53s0,0,.06,0S120.77,29.39,120.77,29.36Zm0-1.52c0-.06.05-.05.09-.06S120.8,27.84,120.74,27.84Zm0-.51s0,0,.06,0S120.8,27.33,120.77,27.33Zm.09.45c-.06-.06,0-.13,0-.18S121,27.81,120.86,27.78Zm.15,1.67a.19.19,0,0,1,0-.09.21.21,0,0,1,.12,0C121.11,29.41,121.09,29.46,121,29.45Zm.06-.86s0,0,0,.06H121v-.09S121,28.59,121.07,28.59Zm0-.3c.11.09-.09.1,0,0Zm0,.87V29.1c.06,0,.1,0,.09.06Zm.09-.24c-.1.07-.15,0-.09-.12S121.13,28.82,121.1,28.92Zm0-.81c-.1,0,0-.17,0-.24S121.12,28,121.1,28.11Zm0-5.58a.19.19,0,0,0,0,.12H121a.21.21,0,0,1,0-.15C121.05,22.49,121.06,22.52,121.1,22.53Zm-.09-.18c.18,0-.11.14,0,0Zm0,2.89s0,0,0,0h.06C121.09,25.25,121,25.24,121,25.24Zm.09.78s0,0-.06,0A0,0,0,0,1,121.07,26ZM121,24.68s0,0,.06,0S121,24.67,121,24.68Zm0,.24c.1-.08-.07.1,0,0Zm0,1.28h.09v.09H121Zm0,.33s0,0,0,0,0,.13,0,.09Zm0-2.09s.07-.05.09,0S121,24.55,121,24.44Zm.06-.75c-.08,0-.13,0-.12-.09S121.07,23.61,121.07,23.69Zm-.09-.77v-.06c.06,0,.1,0,.09.06Zm0,.95s0,0,.09,0S121,24,121,24,121,23.91,121,23.87Zm.09-1.16a0,0,0,0,1,.06,0S121.14,22.7,121.1,22.71Zm-.09,1.4c.1,0,0,.09.06.15H121C120.93,24.16,121,24.17,121,24.11Zm-.06,3a.21.21,0,0,1,0-.15.11.11,0,0,1,.12.12A.28.28,0,0,1,121,27.1Zm.39,2.32h-.09c0-.05,0-.05,0-.09h.06Zm0-.5a.21.21,0,0,1-.15,0,.1.1,0,0,1,.15-.12Zm-.06-1.79c-.11,0,0-.14,0-.18s.06.07.06.15A0,0,0,0,0,121.31,27.13Zm0,.14s0,0-.06,0S121.34,27.24,121.34,27.27Zm0,.3c0,.05-.17.05-.15-.06S121.39,27.47,121.37,27.57Zm-.06.24c.1-.07-.07.1,0,0Zm0,.57c-.13,0,0-.15.09-.15S121.31,28.3,121.31,28.38Zm.12-1.61c-.07,0-.25.25-.48.09.08-.27.47-.07.54-.21.07,0,.14.08.12.21S121.51,26.77,121.43,26.77Zm.09,1.28c.08,0,.13,0,.12.09S121.51,28.13,121.52,28.05Zm.09.3s0,0,0,.06h-.06v-.09S121.57,28.35,121.61,28.35Zm0-1.05v.06C121.49,27.39,121.58,27.21,121.64,27.3Zm0-1.19a.17.17,0,0,1-.15,0V26c.06-.06.13,0,.18,0A.12.12,0,0,0,121.64,26.11Zm-.15.09q.14,0,.12.12T121.49,26.2Zm.12.39c-.3,0,0-.28,0,0Zm-.09-.9h.12C121.67,25.83,121.48,25.85,121.52,25.69Zm.09-.09c-.08,0-.13-.05-.12-.15s.13,0,.18,0A1.34,1.34,0,0,1,121.61,25.6Zm-.09-.45c.12,0,.14.13.09.18S121.49,25.23,121.52,25.15Zm0-.23c.08,0,.06-.05.12,0A.06.06,0,1,1,121.52,24.92Zm.09-1.68c-.11,0-.12-.1-.09-.17h.15C121.7,23.15,121.69,23.2,121.61,23.24Zm-.09.18c.09-.11.1.09,0,0Zm.09.3s-.07,0-.06-.12S121.62,23.65,121.61,23.72Zm0,.24c-.06.06-.14,0-.12-.09S121.65,23.88,121.64,24Zm-.06.06c.1,0,.09.27-.06.21S121.55,24.08,121.58,24Zm0,.42c-.09,0-.12,0-.18-.06S121.63,24.3,121.58,24.44Zm-.09,0c0,.12-.07.17-.12.12A.11.11,0,0,1,121.49,24.47Zm-.24,1.19h.09a.15.15,0,0,1,0,.18s-.06,0-.12,0A.22.22,0,0,1,121.25,25.66Zm.12-.18c0,.06-.05.07-.12.06A.07.07,0,0,1,121.37,25.48Zm-.15.48h.15c0,.05,0,.06,0,.12S121.21,26.05,121.22,26Zm.15.27c0,.07,0,.14-.12.12v-.12Zm0,.27c0,.08-.14.12-.15,0A.11.11,0,0,1,121.4,26.5Zm0-1.49c-.09,0-.13,0-.12-.12S121.38,24.91,121.37,25Zm-.12-.78c0-.05,0-.05,0-.09h.06v.09Zm.09-.27h-.06s0,0,0,0S121.39,23.89,121.34,24Zm0-.54h-.06v-.06h.06Zm-.06-.77h-.06v-.09s0,0,.09,0S121.28,22.62,121.28,22.65Zm.09,2.65c-.09,0-.06,0-.15,0S121.42,25.1,121.37,25.3Zm.27,3.65h-.12a.17.17,0,0,1,0-.15A.13.13,0,0,1,121.64,29Zm0-1.47c.09,0,.21,0,.21.12S121.69,27.58,121.67,27.48Zm.09-3.82s0,0,0-.06a.09.09,0,0,1,.06.09S121.8,23.66,121.76,23.66Zm.12.51v.06h-.06v-.06Zm.06.36c-.06.06-.14,0-.21,0a.17.17,0,0,1,0-.15C121.88,24.37,122,24.41,121.94,24.53Zm0,.42s0,.11-.12.09v-.12C121.85,24.9,121.87,24.94,121.91,25Zm-.09-.3c.05,0,.07.05.06.12A.07.07,0,0,1,121.82,24.65Zm.06,1.31c0,.08-.06.06-.06.12s-.07,0-.06-.12Zm0-.27c0,.27-.23,0,0,0Zm0,.51v.09h-.09V26.2Zm0,.24a.2.2,0,0,1,0,.15.21.21,0,0,1-.15,0v-.09A.17.17,0,0,1,121.88,26.44Zm0,.92h-.09c0-.06,0-.08,0-.12S121.87,27.31,121.88,27.36Zm-.06-.65c.13,0,.11.2,0,.15A.17.17,0,0,1,121.82,26.71Zm0,1.37v.06h-.06v-.06Zm0,1.37c-.1,0-.1,0-.09-.12h.09Zm0-.33c.1-.07-.07.11,0,0Zm0-.2v-.09C121.91,28.78,121.91,29,121.82,28.92Zm0-.3c0-.12,0,.12,0,0Zm0-.3c0-.06.12,0,.12.09S121.78,28.4,121.79,28.32Zm0-1.19c-.07-.07,0-.14,0-.18S121.94,27.16,121.82,27.13Zm0-1.59a.58.58,0,0,1,0-.39C122,25.14,122,25.56,121.79,25.54Zm.36,4c-.1,0-.12,0-.15-.09s0-.12.15-.12A.2.2,0,0,1,122.15,29.51ZM122,25.42h.12a.09.09,0,0,1-.15.09A.16.16,0,0,0,122,25.42Zm0-.23s0,0,.09,0,0,.1-.12.09S122.05,25.22,122.06,25.19Zm0,3.73v-.06a0,0,0,0,0,0,0C122.15,28.81,122.13,29,122.06,28.92Zm.06.24H122V29.1C122.09,29.09,122.12,29.1,122.12,29.16Zm0-.51h-.06v-.09s0,0,.09,0S122.12,28.62,122.12,28.65Zm-.06-.51v-.09h.09S122.14,28.16,122.06,28.14Zm0-.27v-.09h.09v.09Zm0-.72c0-.11,0-.08,0-.17h.12C122.16,27.08,122.15,27.18,122,27.15Zm.12-.41v.12C122,26.88,122,26.7,122.15,26.74Zm-.09-.3c.31.14-.18.23,0,0Zm0-.36v-.15h.15C122.18,26,122.15,26.1,122,26.08Zm0-.3v-.09c.06,0,.08,0,.12,0S122.1,25.79,122,25.78Zm.39.18q0,.16-.15.15C122.16,26,122.31,25.86,122.42,26Zm-.12.24a.13.13,0,0,1,.12.06C122.41,26.42,122.18,26.31,122.3,26.2Zm.12,3.22c-.08,0-.13,0-.12-.09a.17.17,0,0,1,.12,0Zm0-1.67c0,.09,0,.17-.09.15a.11.11,0,0,1,0-.15Zm-.06-.18c-.08-.09.09.08,0,0Zm0,1.26v.09h-.09v-.09Zm0-.75c.09-.08-.08.09,0,0Zm-.06-1c0-.06,0-.07,0-.12s.12.06.09.15S122.34,27.1,122.3,27.1Zm0-.3s0,0,0,0S122.31,26.93,122.3,26.8Zm0,2.36c0-.07.08-.07.12,0S122.37,29.19,122.33,29.16Zm.06-1.8c-.06,0-.07-.05-.06-.12s.08,0,.12,0S122.39,27.32,122.39,27.36Zm.06-.74c-.08,0-.07.05-.15,0a.12.12,0,0,1,.15-.18Zm-.09-.78c-.08,0-.07-.11,0-.15s.08,0,.12,0S122.37,25.78,122.36,25.84Zm-.06-.27v-.09a.14.14,0,0,1,.15,0C122.43,25.55,122.4,25.6,122.3,25.57Zm.38,1.56c-.06,0-.07,0-.12,0A.06.06,0,1,1,122.68,27.13Zm-.09-.3s0,0,0-.06,0,0,.06,0,0,0,0,.06S122.62,26.83,122.59,26.83Zm0,.53v-.09C122.68,27.23,122.68,27.41,122.59,27.36Zm.09.15c0,.07,0,.08,0,.12s-.11,0-.09-.09A.21.21,0,0,1,122.68,27.51Zm0,1.44s0-.06-.09-.06.06-.05.06-.09S122.7,28.91,122.65,29Zm0,.15v.08h-.09V29.1Zm0,.32c-.08,0-.12,0-.12-.09S122.69,29.35,122.68,29.42Zm-.09-1.25c0-.08,0-.13.09-.12S122.67,28.18,122.59,28.17Zm0,1.58c-.06,0-.06-.07-.06-.15s.06,0,.06,0S122.71,29.7,122.62,29.75Zm.09-3.16a.21.21,0,0,1-.15,0c0-.12,0-.11,0-.18S122.72,26.49,122.71,26.59Zm-.15-.36s0,0,0,0a.11.11,0,0,1,.12.12s0,0,0,0S122.57,26.31,122.56,26.23Zm.3,3.1c.06,0,.07.06.06.12h-.09C122.82,29.39,122.86,29.37,122.86,29.33Zm.06,1.17c-.11,0-.09-.13,0-.12Zm0-.27h-.06v-.09H123C123,30.19,122.92,30.19,122.92,30.23Zm-.09-2.6a0,0,0,0,0,0-.06c0-.08.13-.05.18,0S122.91,27.64,122.83,27.63Zm0-.86h.12c0,.06,0,.08,0,.12S122.8,26.85,122.8,26.77Zm.3.44a.14.14,0,0,1,.09.18C123,27.4,123,27.3,123.1,27.21Zm0,1.47v-.06h.06v.06Zm.06.68v.06h-.06v-.06Zm-.06-1v-.06c.07,0,.06,0,.06.09S123.16,28.38,123.13,28.38Zm0-.36c.05,0,.12,0,.09.12S123.09,28.1,123.1,28Zm0-.15v-.06s.06,0,.06,0,0,.1,0,.12S123.13,27.87,123.1,27.87Zm0-.27v-.06c.06,0,.1,0,.09.06Zm0,2.81a0,0,0,0,1,.06,0S123.17,30.41,123.13,30.41Zm.09-.15h-.12a.21.21,0,0,1,0-.15C123.23,30.1,123.23,30.17,123.22,30.26ZM122.83,27c.2.1.26-.05.42,0C123.24,27.2,122.85,27.21,122.83,27Zm.45,1.49a.77.77,0,0,1,.12-.24C123.53,28.32,123.42,28.53,123.28,28.5Zm.09-.69c.06,0,.08,0,.12,0s-.07.14,0,.3h-.12A1.69,1.69,0,0,0,123.37,27.81Zm0-.54a.15.15,0,0,1,.18,0,.14.14,0,0,1-.15.12A.17.17,0,0,1,123.34,27.27Zm.15,1.38c-.1,0-.1,0-.06-.09A.08.08,0,0,1,123.49,28.65Zm-.15.77s0,0,.06-.09,0,.06.09.06S123.38,29.46,123.34,29.42Zm.15,1.59a0,0,0,0,0-.06,0c-.09,0,0-.05,0-.12h.06s0,0,0,0Zm-.09-.24a.11.11,0,0,1,0-.15h.09C123.5,30.7,123.49,30.78,123.4,30.77Zm0-.3v-.06h.06v.06Zm0-.51a.11.11,0,0,1,0-.15s.06,0,.12,0S123.49,30,123.4,30Zm0-2.33a.32.32,0,0,1,0-.18C123.57,27.43,123.55,27.69,123.4,27.63Zm.18-.12h.18C123.82,27.75,123.46,27.66,123.58,27.51Zm.09.39a.19.19,0,0,1,0-.12s.06,0,.12,0S123.76,27.92,123.67,27.9Zm0,.3c-.08,0-.07-.11,0-.15S123.76,28.14,123.7,28.2Zm0,.12c0,.06,0,.08,0,.12s-.07-.05-.06-.12Zm0,.51q0,.11-.12.12C123.55,28.86,123.68,28.73,123.76,28.83Zm0,.44c0,.14,0,.25-.15.21A.17.17,0,0,1,123.76,29.27Zm0,.69c-.06,0,0,.08-.12.06s0,0-.06,0S123.81,29.79,123.79,30Zm-.12,1c.1-.08-.07.1,0,0Zm-.06-.69a.32.32,0,0,1,0-.18.22.22,0,0,1,.15,0C123.81,30.26,123.7,30.3,123.61,30.26Zm.33.69c.17,0-.11.14,0,0Zm0,.26s0,0,.06,0S123.94,31.25,123.94,31.21Zm.06-.74h-.09v-.09H124Zm-.12-.48c0-.13.08-.18.15-.12S124,30,123.88,30Zm0-1.85s0,0,0-.06a.09.09,0,0,1,.06.09S124,28.14,123.91,28.14Zm.09.3a.11.11,0,0,1-.09-.15A.09.09,0,0,1,124,28.44Zm-.06-.57h-.06v-.06h.06Zm0,1.2s.09,0,.09.11a.16.16,0,0,1-.12,0A.17.17,0,0,1,123.91,29.07Zm0,.35v-.06q.09,0,.09.06Zm.09.24s0,0,0,.06h-.06v-.09S124,29.66,124,29.66Zm.18-.33c.08,0,.09,0,.09.12h-.12C124.13,29.39,124.17,29.37,124.18,29.33Zm.09-1.25c.06.05-.13.14-.09,0S124.24,28.06,124.27,28.08Zm-.09-.21s0,0,0-.06,0,0,.06,0,0,0,0,.06S124.21,27.87,124.18,27.87Zm0,1c.05,0,.06.05.06.12h-.09C124.16,28.88,124.2,28.87,124.21,28.83Zm0-.45v-.06h.06v.06Zm0,.69c.05,0,.06.05.06.11s-.08,0-.12,0S124.2,29.11,124.21,29.07Zm0,1.94h-.06c0-.05,0-.06,0-.09S124.27,31,124.24,31Zm0,.23h-.06s0,0,0-.08S124.27,31.2,124.24,31.24Zm.06.3c-.08,0-.13,0-.12-.09S124.33,31.44,124.3,31.54Zm.09-3.13q0-.14.15-.12v.15A.21.21,0,0,1,124.39,28.41Zm.09.71c.1-.07-.08.11,0,0Zm0,.24s.06.06.06.12h-.09C124.4,29.42,124.44,29.4,124.45,29.36Zm.06,1.68h-.06V31s0,0,.09,0S124.51,31,124.51,31Zm0-.39a.09.09,0,0,1,.06.09C124.43,30.76,124.43,30.69,124.48,30.65Zm.06-.18c-.07,0-.08,0-.12,0s0-.05.06-.09S124.54,30.4,124.54,30.47Zm-.06-.24v-.06h.06v.06Zm0-.3s.06-.06.09,0S124.35,30,124.45,29.93Zm0-.24c0-.09.08-.15.14-.09S124.5,29.73,124.42,29.69Zm.26.39c.17,0,.12.24,0,.15A.28.28,0,0,1,124.68,30.08Zm0-.45c.24-.12.08.26,0,0Zm.12.3s-.06,0-.06,0S124.77,29.93,124.8,29.93Zm-.12-.48v-.09C124.77,29.32,124.77,29.5,124.68,29.45Zm.09-.18a.16.16,0,0,0-.09,0,.26.26,0,0,1,0-.14C124.83,29.07,124.82,29.23,124.77,29.27Zm0,1.2c.1-.08-.08.09,0,0Zm.06,1.07c-.26.12,0-.29,0,0Zm-.09-.33s0,0,0-.05.07,0,.06.08S124.75,31.22,124.71,31.21Zm.12-.44c-.28.12-.08-.3,0,0Zm-.15-2c0-.12,0-.19.15-.18S124.81,28.75,124.68,28.74Zm.3,1.64c.12,0,.11.18-.06.15C124.9,30.43,125,30.44,125,30.38Zm.3-1.76a.27.27,0,0,1-.33.09v-.09A.38.38,0,0,1,125.28,28.62Zm-.3-.33c.07,0,.12.05.09.15A.09.09,0,0,1,125,28.29Zm.24,2.42a.12.12,0,0,1,.12,0v.09S125.19,30.8,125.22,30.71Zm.12.47v.12h-.12Q125.2,31.17,125.34,31.18ZM125.22,30c0-.07.08-.07.12,0S125.3,30,125.22,30Zm.06-.66c.1,0,0,.12,0,.18S125.19,29.35,125.28,29.3Zm0-.47c0,.06,0,.08,0,.12A.06.06,0,1,1,125.31,28.83Zm-.06.74c.08,0,.1,0,.09.12S125.19,29.65,125.25,29.57Zm.09-.35c-.1,0-.11-.11-.06-.15S125.39,29.17,125.34,29.22Zm-.18-.78c0-.05,0-.06,0-.12s.18,0,.18.06S125.21,28.48,125.16,28.44Zm-.15.68h.06v.06H125Zm0-.17v-.06H125V29Zm.09.41v.12c-.08,0-.13,0-.12-.09A.21.21,0,0,1,125.07,29.36Zm0,.27c0,.05,0,.05,0,.09H125v-.09Zm-.15.3c.24-.13.08.26,0,0Zm.12.87c-.12,0-.1-.13,0-.15S125.08,30.76,125,30.8Zm0,1c-.06,0-.06-.07-.06-.15h.12C125.1,31.79,125.05,31.81,125,31.84Zm0-.36c.07-.06.1,0,.15,0S125,31.59,125,31.48Zm0-.18c-.07-.1.08-.23.18-.14S125.08,31.32,125,31.3Zm.24-.86a.21.21,0,0,1,.12,0v.09S125.16,30.53,125.19,30.44Zm0,1.4a.11.11,0,0,1,0-.15h.09C125.32,31.78,125.31,31.86,125.22,31.84Zm0-.24c-.09-.1,0-.32.15-.21S125.32,31.58,125.22,31.6Zm0-.56a.11.11,0,1,1,.15-.15Q125.42,31,125.25,31Zm.33.29c-.15.05-.14-.14-.09-.2A.12.12,0,0,1,125.58,31.33Zm0,.24a.18.18,0,0,1-.15,0,.11.11,0,0,0,0-.09Q125.63,31.44,125.61,31.57Zm-.12.48c0-.06,0-.08,0-.12s0,0,.09,0S125.57,32.06,125.49,32.05Zm0-.18a.13.13,0,0,1,.06-.21C125.67,31.68,125.65,31.89,125.49,31.87Zm.09-.83c-.12,0,0-.19.06-.09S125.59,31,125.58,31Zm-.12-.51c0-.1,0-.18.15-.15s0,.06,0,.12S125.58,30.54,125.46,30.53Zm.15-1.64c0,.05,0,.06-.12.06S125.57,28.84,125.61,28.89Zm-.06-.24s0,0,.06,0S125.57,28.64,125.55,28.65Zm0,.47s0,0,0,0,0,.13,0,.08Zm0,.87c0-.06,0-.08,0-.12S125.6,30,125.52,30Zm0,.21s.06-.05.09,0S125.48,30.31,125.52,30.2Zm.06-1.7c-.11,0-.11-.14-.06-.18S125.63,28.45,125.58,28.5Zm-.12.89c.24-.12.08.26,0,0Zm.3,1.59s.08,0,.09,0S125.74,31.05,125.76,31Zm.09.26h-.09v-.08C125.82,31.15,125.85,31.18,125.85,31.24Zm0,.84s0,0-.09-.06,0-.05.06-.09S125.89,32,125.85,32.08Zm-.12-1.4c.07,0,.09-.06.15,0S125.7,30.8,125.73,30.68Zm.12-1.32v.12c-.08,0-.13,0-.12-.09A.21.21,0,0,1,125.85,29.36Zm-.06-.77c.1,0,.11.1.06.15S125.74,28.63,125.79,28.59Zm0,.51a.07.07,0,0,1,.06.08C125.75,29.21,125.75,29.14,125.79,29.1Zm0,.65c-.07,0,0-.15.06-.12S125.79,29.69,125.79,29.75Zm.06.12V30h-.12Q125.72,29.85,125.85,29.87Zm0,.3c0,.09-.09.09-.15,0S125.84,30.13,125.88,30.17Zm-.09-1.28s.06-.06.09,0S125.69,29,125.79,28.89Zm.27,2.86s0,0,.06,0S126.08,31.75,126.06,31.75Zm.06-.71c-.05,0-.14,0-.12-.12S126.21,31,126.12,31Zm0-.9v.12c-.08,0-.13,0-.12-.09A.19.19,0,0,1,126.15,30.14ZM126,30s0,0,0-.06,0,0,.06,0,0,0,0,.06S126.06,30,126,30Zm0-.21v-.09c.06,0,.08,0,.12,0S126.13,29.76,126.06,29.75Zm.09-1c-.1,0-.11-.08-.06-.12S126.16,28.64,126.15,28.71Zm0,.27c-.13,0-.12-.08-.09-.15S126.12,28.89,126.12,29Zm-.09.12q.1,0,.12.12a.16.16,0,0,1-.12,0A.1.1,0,0,1,126,29.1Zm.12,1.4a.11.11,0,0,1-.15,0C126,30.37,126.18,30.33,126.15,30.5Zm-.15.27v-.09a.15.15,0,0,1,.18,0C126.19,30.78,126.09,30.77,126,30.77Zm.24.68c.06-.06.13,0,.18,0S126.2,31.57,126.24,31.45Zm.15-2.47c-.19,0-.08-.26-.06-.39s0,0,.09,0S126.44,28.9,126.39,29Zm-.09.65h.09c0,.05,0,.05,0,.09h-.06Zm0-.3a.13.13,0,0,1,.12.12.12.12,0,0,1-.12,0A.11.11,0,0,1,126.3,29.33Zm.12.54c0,.08,0,.13-.09.12S126.34,29.86,126.42,29.87Zm-.12-.77h.09c0,.1,0,.17-.12.14A.16.16,0,0,1,126.3,29.1Zm0,1s0,.05.09.06-.08.06-.15.06S126.33,30.17,126.33,30.11Zm0,.66q0-.15.12-.12v.12Zm.12.15s0,0,0,.09h-.06v-.09Zm-.06,1.13v-.12A.06.06,0,1,1,126.36,32.05Zm.21-3.22c.06,0,.07,0,.11,0s0,.14-.14.12A.17.17,0,0,1,126.57,28.83Zm.08-.09c-.29,0,.13-.26,0,0Zm-.08.68c0-.05.13,0,.08,0h-.05S126.58,29.43,126.57,29.42Zm0-.32h.11v.14C126.53,29.25,126.49,29.19,126.54,29.1Zm.11.47a.17.17,0,0,1,0,.21h-.11C126.48,29.68,126.51,29.56,126.65,29.57Zm0,.42a.1.1,0,0,1-.08-.18C126.65,29.84,126.7,29.9,126.65,30Zm0,1.55h-.08v-.09C126.63,31.45,126.66,31.48,126.65,31.54Zm-.08-1.1s0,0,0-.06a.07.07,0,0,1,.05.09S126.6,30.44,126.57,30.44Zm0,1.31s.07,0,.08,0S126.58,31.82,126.6,31.75Zm.08-1.49c-.08,0-.17,0-.14-.12S126.71,30.15,126.68,30.26Zm.12-.63s.17,0,.15.06S126.78,29.74,126.8,29.63Zm.15.3s0,0,0,.06h-.06V29.9S126.92,29.93,127,29.93Zm-.15-.6q.15,0,.15.12C126.88,29.52,126.77,29.47,126.8,29.33Zm.12-.09c-.13.05-.14-.12-.09-.17S127,29.16,126.92,29.24Zm-.06-.38c0-.05,0,0,.06,0S126.86,28.89,126.86,28.86Zm-.09-.27h.15C127,28.75,126.73,28.75,126.77,28.59Zm0,1.58s.18-.05.18,0-.09.09-.18.09Zm.09.78h.06V31h-.06Zm0-.57c.11,0,.11.1.06.15S126.79,30.42,126.83,30.38Zm0,1.07s0,0,.06,0v.06a.06.06,0,0,0-.06,0C126.76,31.57,126.83,31.47,126.83,31.45Zm0,.51c.06,0,.07,0,.06.12h-.09C126.82,32,126.85,32,126.86,32Zm.09.6c-.26.11,0-.3,0,0Zm0-.75h-.09v-.09H127Zm-.15-.63c.07-.06.14,0,.18,0S126.81,31.31,126.8,31.18Zm.24-2.56h.12c0,.06,0,.08,0,.12S127,28.7,127,28.62Zm0,.74h.12v.12Q127,29.53,127.07,29.36Zm0,.24q.12,0,.12.12a.17.17,0,0,1-.15,0A.22.22,0,0,1,127.1,29.6Zm0,1.17v-.12c.07,0,.08,0,.12,0S127.2,30.79,127.1,30.77Zm.09.18s0,0,0,.06h-.06v-.09C127.15,30.91,127.15,30.94,127.19,31Zm-.09-.48a0,0,0,0,1,.06,0S127.11,30.51,127.1,30.47Zm.09-.18h-.09c-.07-.08,0-.15.06-.18S127.23,30.25,127.19,30.29Zm0-.39V30a0,0,0,0,0,0,0h-.06s0,0,0,0V29.9s0,0,0,0h.06S127.17,29.9,127.19,29.9Zm-.09,1.82s.07,0,.09,0S127.06,31.83,127.1,31.72Zm.15.3c-.08,0-.06,0-.12,0a.12.12,0,0,0,0-.09h.09Zm-.18-.86a.24.24,0,0,1,.18,0C127.22,31.29,127.05,31.36,127.07,31.16Zm.27-.51a.12.12,0,0,1,.12.06C127.47,30.88,127.22,30.75,127.34,30.65Zm.12-.39c-.08,0-.13,0-.12-.09S127.47,30.18,127.46,30.26Zm-.09-.36h.09V30Q127.37,30,127.37,29.9Zm.09-.15c-.16,0-.16-.09-.09-.15S127.48,29.66,127.46,29.75Zm-.09.63s.07.05.06.12-.08,0-.12,0S127.36,30.42,127.37,30.38Zm0,.66V31c.06,0,.08,0,.12,0S127.41,31,127.34,31Zm0,.24v-.07s0,0,0,0S127.45,31.32,127.37,31.28Zm0,.14h.09v.12C127.35,31.55,127.33,31.5,127.34,31.42Zm.09.63c-.07,0-.07-.11,0-.15S127.5,32,127.43,32.05Zm0-2.57c-.07,0-.07-.11,0-.15s.08,0,.12,0S127.41,29.43,127.4,29.48Zm.06-.21c-.27,0-.14-.31,0-.15S127.45,29.2,127.46,29.27Zm0-.38a.19.19,0,0,0,0,.09h-.06s0,0,0,0S127.39,28.88,127.46,28.89Zm-.06-.27c.11,0,.1.17,0,.18S127.37,28.66,127.4,28.62Zm.33,1.31a.11.11,0,0,1-.12.12A.09.09,0,1,1,127.73,29.93Zm0-.3q0,.15-.12.12T127.73,29.63Zm-.12.57s.08,0,.09,0S127.59,30.27,127.61,30.2Zm.09.78c0,.1-.13.05-.15,0S127.69,30.91,127.7,31Zm0-.27a.12.12,0,0,0,0,.09C127.51,30.82,127.61,30.59,127.73,30.71Zm0,.5v.07C127.55,31.3,127.64,31.12,127.7,31.21Zm0,.54s0,0-.06,0S127.65,31.76,127.67,31.75Zm.06.3c0,.05-.17,0-.15-.06S127.75,32,127.73,32.05Zm-.12-1.52a.21.21,0,0,1,0-.15c.08,0,.06.06.12.06A.11.11,0,0,1,127.61,30.53Zm0-1s0-.1,0-.18.09.06.18,0C127.78,29.49,127.73,29.53,127.61,29.51Zm.09-.89v.09h-.09v-.09Zm-.09-.12v-.15h.12C127.77,28.44,127.73,28.5,127.61,28.5Zm.12.36c0,.06,0,.08,0,.12s-.1-.07-.09-.15S127.67,28.86,127.73,28.86Zm-.06.3v.06h-.06v-.06Zm.21-.39c-.07-.07,0-.14,0-.18S128,28.77,127.88,28.77Zm0,.21v-.09C128,28.84,128,29,127.91,29Zm-.06-.6c0-.08.11-.07.15,0S127.89,28.42,127.85,28.38Zm.15.72v.12s-.09,0-.09,0-.07,0-.06-.12A.22.22,0,0,1,128,29.1Zm-.12.38c0-.06,0-.08,0-.12s0,0,.09,0S128,29.49,127.88,29.48Zm0,.66H128v.09h-.09C127.87,30.18,127.91,30.18,127.91,30.14Zm0-.24A.08.08,0,0,1,128,30C127.86,30,127.87,30,127.91,29.9Zm0,.48c.35.06-.12.3,0,0Zm0,.42v-.15C128.07,30.59,128.07,30.86,127.88,30.8Zm0,.18s.08,0,.09,0S127.89,31.05,127.91,31Zm.09,1.13a.2.2,0,0,1-.15,0V32c.05,0,.06,0,.12,0A.32.32,0,0,1,128,32.11Zm-.09-.3v-.09C128,31.68,128,31.86,127.91,31.81Zm.09-.51a.22.22,0,0,1-.15,0,.11.11,0,0,1,.18-.1C128,31.24,128,31.25,128,31.3Zm-.09-1.52c0-.08-.07-.11,0-.18s.09,0,.15.06S128,29.78,127.91,29.78Zm.21,2.36a.59.59,0,0,1,.06-.45C128.35,31.74,128.4,32.18,128.12,32.14Zm0-1.85a.17.17,0,0,1,0-.15c.1,0,.11.05.12.12S128.21,30.32,128.12,30.29Zm.12.24q-.15,0-.12-.12C128.21,30.39,128.25,30.44,128.24,30.53ZM128.15,29c0-.1,0-.12.06-.15S128.3,29,128.15,29Zm0,.26a.16.16,0,0,1,0-.14h.09C128.28,29.2,128.26,29.27,128.15,29.24Zm.12.12c0,.2-.17.23-.15,0A.21.21,0,0,1,128.27,29.36Zm0,.3v.09a.1.1,0,0,1-.15-.09Zm-.18.24a.11.11,0,0,1,.18.12C128.2,30.07,128.13,30,128.12,29.9Zm.15-1.16c-.07,0-.14,0-.12-.12S128.36,28.65,128.27,28.74Zm-.15-.3c0-.08.06-.06.06-.12S128.24,28.51,128.12,28.44Zm.06,2.21a.19.19,0,0,0,.09,0c0,.12-.07.13-.15.15S128.15,30.7,128.18,30.65Zm.06.3V31q-.11,0-.09-.09Zm.09-1.79c0-.1.26-.09.21.06S128.37,29.21,128.33,29.16Zm.06-.57a.11.11,0,0,1,.18.12C128.46,28.72,128.36,28.71,128.39,28.59Zm0,.39a.17.17,0,0,1,0-.15C128.55,28.8,128.53,29,128.39,29Zm0,2.83v-.09C128.5,31.68,128.5,31.86,128.42,31.81Zm.12-1.13s0,.09-.12.09S128.49,30.63,128.54,30.68Zm-.12.83a.19.19,0,0,0,0-.09h.06a.24.24,0,0,1,0,.09Zm0-.23c0-.05,0-.06,0-.1s.06.05,0,.1Zm.09-.21a.09.09,0,0,1-.09-.15C128.54,30.9,128.54,31,128.54,31.07Zm-.12-.51c-.1-.07,0-.16.06-.21S128.54,30.55,128.42,30.56Zm.15-.3c-.08.06-.22,0-.21-.09a.12.12,0,0,0,.06-.06Q128.57,30.1,128.57,30.26Zm-.06-.51h-.12q0-.13.12-.12Zm0,.27c-.15,0-.15-.15-.06-.18A.11.11,0,0,1,128.51,30Zm.06-.54c-.11,0-.21,0-.18-.12A.12.12,0,0,1,128.57,29.48Zm.23-1.16q0,.13-.12.12C128.67,28.34,128.71,28.31,128.8,28.32Zm-.12-.15c0-.12,0,.12,0,0Zm.12.54c-.12,0-.14-.09-.09-.15S128.82,28.61,128.8,28.71Zm0,.45a.08.08,0,0,1-.09.06C128.67,29.15,128.73,29.16,128.77,29.16Zm0,.23c0,.1-.05.11-.12.12a.11.11,0,0,1,0-.09A.2.2,0,0,1,128.77,29.39Zm-.12.24s.12,0,.12,0S128.59,29.74,128.65,29.63Zm.12.63c-.06,0-.07,0-.12,0a.09.09,0,0,0,0-.09c.07,0,.08,0,.12,0A.19.19,0,0,0,128.77,30.26Zm0,.27c-.12,0-.14-.09-.09-.15S128.78,30.44,128.77,30.53Zm-.12,1.19a.21.21,0,0,1,.15,0C128.8,31.91,128.63,31.88,128.65,31.72Zm0-.68V31a.11.11,0,0,1,.15,0C128.82,31,128.74,31,128.65,31Zm0-.3s.09-.06.12,0S128.63,30.83,128.68,30.74Zm0-.69a.15.15,0,0,1,0-.18C128.83,29.89,128.87,30.05,128.71,30.05Zm.12-1.07a.12.12,0,0,1-.12-.18C128.79,28.83,128.86,28.85,128.83,29Zm0,.12a.19.19,0,0,1,.18,0C129.08,29.27,128.84,29.23,128.86,29.1Zm.09-.39v-.09c.07,0,.08,0,.12,0S129,28.72,129,28.71Zm.12.18s0,.11-.12.09S129,28.88,129.07,28.89Zm0-.75H129v-.06H129Zm0,.21v.12c-.07,0-.14,0-.12-.12Zm-.09,1c.1,0,.11.05.12.12S128.86,29.45,129,29.36Zm.09,2.27a.13.13,0,0,1-.09-.15.21.21,0,0,1,.12,0C129.09,31.57,129.11,31.56,129,31.63Zm-.09-.45H129c0,.07,0,.08,0,.12S128.94,31.25,129,31.18Zm.06-.11c-.1,0,0-.14,0-.18S129.09,31,129,31.07Zm0-.57v-.09h.09v.09Zm-.06-.78a.09.09,0,1,1,.18,0A.15.15,0,0,1,128.92,29.72Zm.39.45v.09h-.09v-.09Zm-.06-.18V29.9q.1,0,.09.09Zm0,.45c0-.12,0,.12,0,0Zm0,.21h.09C129.39,30.86,129.13,30.79,129.25,30.65Zm0,.27c.1,0,.07.19-.06.15A.13.13,0,0,1,129.28,30.92Zm.06.26v.12c-.1,0-.1,0-.09-.12Zm0,.36c-.2.13-.2-.21,0-.09Zm-.18-1.79c-.1-.14.19-.21.18,0S129.28,29.79,129.19,29.75Zm.06-.83a0,0,0,0,1,.06,0S129.26,29,129.25,28.92Zm.06.3a.07.07,0,0,1-.06-.12C129.3,29.1,129.32,29.15,129.31,29.22Zm0-.54c-.14,0-.05-.16,0-.06Zm.06.71q0,.15-.12.12A.09.09,0,1,1,129.34,29.39Zm-.15-1.58a.21.21,0,0,1,.15,0C129.31,28,129.2,27.94,129.19,27.81Zm.12.27v.12h-.12Q129.18,28.07,129.31,28.08Zm.3-.27a.09.09,0,0,1-.15.09.12.12,0,0,0,0-.09Zm-.12-.12v-.12h.09C129.59,27.65,129.57,27.7,129.49,27.69Zm.15.36q0,.18-.18.15C129.41,28.05,129.55,28,129.64,28.05Zm0,.39c-.09.07-.21,0-.18-.15S129.62,28.32,129.61,28.44Zm-.15.3a.21.21,0,0,1,0-.15c.06,0,.08,0,.12,0S129.56,28.74,129.46,28.74Zm.09.12v.06h-.06v-.06Zm-.09.24a.22.22,0,0,1,.15,0v.1C129.52,29.29,129.39,29.19,129.46,29.1Zm0,.26a.15.15,0,0,1,.18,0,1.34,1.34,0,0,1-.06.12C129.5,29.51,129.45,29.46,129.46,29.36Zm0,.51c.11,0,.19.08.12.15S129.48,30,129.49,29.87Zm.12-.27c0,.1,0,.17-.12.15S129.52,29.61,129.61,29.6Zm-.09,1c0-.06-.1-.14,0-.21h.12C129.66,30.44,129.65,30.56,129.52,30.56Zm.06.21h-.09v-.06C129.55,30.7,129.58,30.71,129.58,30.77Zm-.06.44c.18,0-.11.15,0,0Zm.12-.17a.14.14,0,0,1-.15,0,.14.14,0,0,0,0-.09C129.6,30.94,129.65,31,129.64,31Zm-.18-.81a.12.12,0,0,1,.21,0C129.67,30.29,129.5,30.27,129.46,30.23Zm.36,1.07c-.29-.05.13-.26,0,0Zm0-.77c-.07,0-.07-.08,0-.12S129.83,30.49,129.79,30.53Zm0,.24a.09.09,0,0,1-.06-.09A.08.08,0,0,1,129.82,30.77Zm0,.27h-.06V31h.09S129.82,31,129.82,31Zm0-.78h-.06v-.09c.05,0,.05,0,.09,0S129.82,30.23,129.82,30.26Zm0-.24s0-.05-.09-.06.05-.07.12-.06S129.83,30,129.82,30Zm-.12-.27a.22.22,0,0,1,0-.15q.17,0,.15.15C129.79,29.79,129.81,29.75,129.7,29.75Zm0-1a.17.17,0,0,1,0-.15C129.94,28.55,129.9,28.8,129.73,28.74Zm.12.12V29q-.1,0-.09-.09Zm0,.5c0,.07,0,.08,0,.12S129.75,29.34,129.85,29.36Zm0-.12a.22.22,0,0,1-.15,0c0-.07,0-.08,0-.12A.11.11,0,0,1,129.88,29.24Zm0-.8a.2.2,0,0,1-.21,0c0-.1,0-.12.09-.15S129.92,28.34,129.91,28.44Zm0-.66v.15s0,0-.06,0-.13-.05-.12-.15A.31.31,0,0,1,129.88,27.78Zm-.12-.21s.05,0,.09,0C130,27.7,129.65,27.72,129.76,27.57Zm.09.63a.07.07,0,0,1-.06-.12Q129.87,28.1,129.85,28.2Zm.18-1.1c0-.09.14-.08.12,0S130.07,27.1,130,27.1Zm.09.32c-.11,0-.11-.1-.06-.15S130.17,27.38,130.12,27.42Zm0,.15v.06H130v-.06Zm0,.21c.05,0,.05,0,.09,0s0,.12-.12.09S130.05,27.82,130.06,27.78Zm0,.27c.08,0,.09.06.06.15s-.14,0-.12-.12A.06.06,0,0,0,130.06,28.05Zm.06.27v.09H130c0-.05,0-.05,0-.09Zm0,.33q0,.13-.12.12C130,28.67,130,28.63,130.12,28.65Zm0,.83H130c0-.06,0-.08,0-.12S130.11,29.43,130.12,29.48Zm-.09-.65a.19.19,0,0,0,.09,0s-.06,0-.06.09S130,28.9,130,28.83Zm0,.86q0-.07.12-.06C130.13,29.73,130,29.74,130,29.69Zm0,.48h.09v.09H130Zm.09.84c-.15,0-.06-.16,0-.06ZM130,30.8v-.12C130.17,30.65,130.18,30.84,130,30.8Zm0-.78V29.9h.12Q130.17,30,130,30Zm.36-2.89h-.12C130.24,27,130.43,27,130.39,27.13Zm0-.3c-.09.11-.1-.09,0,0Zm-.09.56c0-.06,0-.08,0-.12S130.41,27.43,130.27,27.39Zm.12.3c-.09,0-.17,0-.15-.15A.11.11,0,0,1,130.39,27.69Zm0,.39v.12C130.24,28.22,130.24,28.06,130.36,28.08Zm0,.39s0,0-.06,0v-.06C130.36,28.37,130.35,28.42,130.36,28.47Zm-.09-.48c-.07-.06,0-.13,0-.18s.09.07.09.15S130.32,28,130.27,28Zm0,2s.06,0,.06,0S130.3,30,130.3,30Zm.09.81h-.06v-.06h.06Zm-.09-1a.17.17,0,0,1,0-.15h.12C130.42,29.72,130.4,29.77,130.3,29.78Zm.09-.92v.06s0,0,0,0h-.06s0,0,0,0v-.06a0,0,0,0,0,0,0h.06S130.37,28.85,130.39,28.86Zm0,.26v.06h-.06v-.06Zm0,.24c0,.07,0,.08,0,.12s-.05-.05-.09-.06S130.32,29.36,130.39,29.36Zm0-.65a.11.11,0,0,1-.18-.12C130.34,28.58,130.44,28.58,130.42,28.71Zm.24-2.12a.11.11,0,0,1-.15,0c0-.08.06-.06.06-.12S130.66,26.51,130.66,26.59Zm-.09-.24v-.06h.06v.06Zm0,.66c.09,0,.09.06.09.14S130.51,27.06,130.57,27Zm0-.18c.09-.11.1.09,0,0Zm.09,1.07c-.08,0-.13,0-.12-.09a.17.17,0,0,1,.12,0Zm0,.27h-.15v-.09A.09.09,0,0,1,130.66,28.17Zm-.06-.54h-.06c0-.05,0-.05,0-.09S130.63,27.59,130.6,27.63Zm.06,1.32c-.1,0-.11,0-.18,0A.09.09,0,1,1,130.66,29Zm-.09-.3c.09-.08-.09.09,0,0Zm.06.45v.12c-.07,0-.08,0-.12,0a.15.15,0,0,0,0-.08Zm0,.53q0,.15-.12.12C130.44,29.67,130.57,29.54,130.66,29.63Zm-.09.24h.09C130.7,30.09,130.45,30,130.57,29.87Zm0,.3s0,0,0,0,.09,0,.09.12S130.53,30.25,130.54,30.17Zm0,.27a.11.11,0,0,1,.15,0C130.67,30.52,130.55,30.56,130.54,30.44Zm0-1.11c.06,0,.12.06.12.15S130.48,29.42,130.57,29.33Zm0-1a.12.12,0,0,1,.15.12C130.61,28.48,130.5,28.42,130.54,28.29Zm0-.93c0-.07.11-.07.15,0S130.57,27.4,130.54,27.36Zm.26.21c.26-.12.06.29,0,0Zm.12-.24c-.09.11-.1-.09,0,0Zm-.15-.56a.18.18,0,0,1,.15,0C131,26.91,130.74,26.94,130.77,26.77Zm.12.24v.12h-.12Q130.76,27,130.89,27Zm-.09,1.07c.07-.06.06,0,.12,0S130.76,28.16,130.8,28.08Zm0,.33c.11-.18.16.18,0,0Zm.09,1.58h-.09V29.9h.09Zm-.09-1.1a.06.06,0,1,1,.12,0C130.86,29,130.87,28.9,130.8,28.89Zm.09.27v.06C130.75,29.24,130.84,29.06,130.89,29.16Zm0,.59c-.12,0-.14-.09-.09-.15S131,29.65,130.92,29.75Zm-.09-1c-.09-.09,0-.22.12-.12S130.91,28.73,130.83,28.74Zm0-2.39a.09.09,0,1,1,.12-.12Q131,26.37,130.83,26.35Zm.12-.24c-.1,0-.12,0-.18-.06s.13-.17.21-.09S130.94,26,131,26.11Zm0-.33c0,.08-.11.07-.15,0S130.89,25.74,130.92,25.78Zm-.06-.21v-.06h.06v.06Zm.27-.09c.18,0-.11.14,0,0Zm0,.57c-.08-.09.09.08,0,0Zm0-.75a.06.06,0,1,1,0-.11C131.21,25.24,131.16,25.22,131.16,25.3Zm0,1c0,.05-.17,0-.15-.06S131.21,26.22,131.19,26.32Zm-.09,1c.1-.07-.07.1,0,0Zm.06.33a.09.09,0,0,1-.09-.15C131.13,27.53,131.19,27.56,131.16,27.66Zm-.09-1.13a0,0,0,0,1,.06,0S131.11,26.53,131.07,26.53Zm.06.24h.06v.06h-.06Zm0,1.82v.12H131C131,28.61,131.09,28.6,131.16,28.59Zm-.09-.48s.07-.05.09,0S131,28.22,131.07,28.11Zm.09.75s0,.05,0,.09h-.06v-.09Zm0,.62h-.12v-.12Q131.22,29.35,131.19,29.48Zm0-.26c-.09,0-.05,0-.15,0a.21.21,0,0,1,0-.15h.09A.17.17,0,0,1,131.19,29.22Zm-.12-1.29c0-.05,0-.06,0-.12S131.31,27.94,131.07,27.93Zm0-.89c.1,0,.08,0,.12.06S131.05,27.14,131.1,27Zm.27,1.19q-.08,0-.06-.12c.06,0,.08,0,.12,0S131.38,28.19,131.37,28.23Zm0,.12v.06h-.06v-.06Zm-.09.57s.05-.05.06-.09S131.39,29,131.31,28.92Zm.12.3h-.09c0-.07,0-.08,0-.12S131.42,29.16,131.43,29.22Zm-.09-1.56c0-.09,0-.11.06-.15A.08.08,0,1,1,131.34,27.66Zm0-.3c0-.05,0-.06,0-.12s.08,0,.12,0S131.4,27.37,131.31,27.36Zm0-.32c.1,0,.07,0,.12.06S131.29,27.14,131.34,27Zm.15-.09c-.21,0-.1-.22-.27-.27,0-.11.11-.12.15-.18s.07.22,0,.24.16,0,.15.15S131.5,26.92,131.49,27Zm-.24-1.26c0-.12,0,.12,0,0Zm.21-1.43c-.06,0-.08,0-.12,0s0-.07.12-.06Zm-.09,1s.06,0,.09,0S131.33,25.36,131.37,25.24Zm0-.53a.08.08,0,0,1,.06.09c-.05,0-.05,0-.09,0S131.37,24.74,131.37,24.71Zm.09.33s-.15,0-.15-.09S131.46,25,131.46,25Zm0,.41v.12c-.08,0-.17,0-.18-.09A.32.32,0,0,1,131.49,25.45Zm0,.36c-.1.07-.15,0-.09-.12S131.52,25.72,131.49,25.81Zm-.12.15a.14.14,0,0,0,.09,0c0,.12-.09.13-.15.06S131.36,26,131.37,26Zm.21,3.49v-.09a0,0,0,0,0,.06,0s.05.06.09.06S131.65,29.46,131.58,29.45Zm.06-1.61a.08.08,0,0,1,.06.09C131.6,28,131.6,27.89,131.64,27.84Zm0,.48c.18,0-.11.14,0,0Zm0-.69v-.09h.09v.09Zm.06,1s0,0,0,0,0-.06,0-.09S131.67,28.61,131.67,28.65Zm0,.24c0-.12,0,.11,0,0Zm.12-1.47c-.07,0-.17,0-.18-.12A.12.12,0,0,1,131.76,27.42Zm-.15-.38c.18,0-.11.14,0,0Zm0-.75c0-.13.16,0,.21,0S131.64,26.32,131.61,26.29Zm.06-.78a0,0,0,0,1-.06,0S131.64,25.52,131.67,25.51Zm-.06-1v-.06c.06,0,.09,0,.09.06ZM131.7,26h-.09V26Q131.7,25.95,131.7,26Zm0-7.55s0,0,0,.06h-.06v-.09S131.63,18.47,131.67,18.47Zm-.06-.57a.07.07,0,0,1,.06.12S131.6,18,131.61,17.9Zm.18,1.08c0,.12-.21.17-.24.06S131.73,18.93,131.79,19Zm0-2.87c0-.12,0,.12,0,0Zm-.15,4a0,0,0,0,1,.06,0S131.65,20.12,131.64,20.08Zm0,.18v.06h-.06v-.06Zm0-.45v-.06h.06v.06Zm.06.63c-.08-.09.09.08,0,0Zm0-.93a.08.08,0,0,1-.09.06C131.6,19.51,131.65,19.52,131.7,19.51Zm-.09,2.09a.07.07,0,0,1,.06.12S131.6,21.67,131.61,21.6Zm0,.24s.14,0,.12.09S131.6,21.92,131.61,21.84Zm.24-6a.08.08,0,0,1,.06.09C131.81,16,131.81,15.91,131.85,15.87Zm0,5.79v-.09C132,21.53,132,21.71,131.88,21.66Zm.09.15v.06h-.06v-.06Zm-.06,1.05s0,0,.06,0,0,0,0,.06,0,0-.06,0S131.91,22.89,131.91,22.86Zm0,.35c-.1,0-.1,0-.06-.09A.09.09,0,0,1,131.94,23.21Zm0,.51c-.08,0-.13,0-.12-.09S132,23.64,132,23.72Zm0-2.33c-.18,0,0-.2-.06-.33H132C132,21.14,132,21.3,131.94,21.39Zm-.09-3.49h.09V18C131.86,18,131.84,18,131.85,17.9Zm0,.84c.1-.08-.07.1,0,0Zm0-1.41a.09.09,0,0,1,.06.09C131.87,17.45,131.87,17.38,131.91,17.33Zm-.06,6.81H132v.12Q131.82,24.29,131.85,24.14Zm0,.81H132V25Q131.87,25,131.88,25ZM132,26.5v.09c-.06,0-.08,0-.12,0S131.93,26.49,132,26.5Zm-.15.54c.08,0,.17-.05.15.09S131.82,27.16,131.85,27Zm.18.56s-.05,0-.06.09a.12.12,0,0,1-.09-.15C132,27.52,132,27.59,132,27.6ZM132,29.1c0,.06,0,.07,0,.12A.06.06,0,1,1,132,29.1Zm-.06.32c0-.06,0-.05.09-.06A.07.07,0,0,1,131.91,29.42Zm.09-1c-.05.05-.17,0-.15-.06S132,28.31,132,28.41Zm0-.45c.14,0,0,.18,0,0Zm.21.72h-.06v-.06h.06Zm-.09-.27v-.09c.06,0,.08,0,.12,0S132.19,28.42,132.12,28.41Zm.12-.78h-.09v-.09h.09Zm-.12-.3s0-.06.12-.06S132.16,27.38,132.12,27.33Zm0-.38c.12,0,.14.07.15.18C132.13,27.16,132,27,132.12,27Zm-.24-.15c.05-.17.28,0,.33-.18s-.14-.1-.06-.18C132.55,26.52,132.19,27.05,131.88,26.8Zm.3-6.48h.06v.06h-.06Zm0-1.14c.11.09-.09.1,0,0Zm.06,2.72c-.11,0-.1,0-.06-.09A.09.09,0,0,1,132.24,21.9Zm0,.75s0,0-.06,0A0,0,0,0,1,132.21,22.65Zm0,.27c-.09.11-.1-.09,0,0Zm0,.2v.06h-.06v-.06Zm-.06.45a.13.13,0,0,1,.12.12s0,0,0,.06S132.12,23.63,132.18,23.57Zm0,1.7s0,0,.06-.08.07,0,.06.11S132.19,25.28,132.15,25.27Zm0,.51v-.06s0,0,0,0S132.22,25.83,132.15,25.78Zm0-1c0-.13.18-.18.15,0A.11.11,0,0,1,132.15,24.74Zm0,1.25c.06,0,.08,0,.12,0s0,.08,0,.12S132.11,26.08,132.15,26Zm0,.27c.1-.07-.07.1,0,0Zm.27,2.39v-.06h.06v.06Zm.06.21s0,0,0,.06,0,0-.06,0,0,0,0-.06S132.48,28.86,132.51,28.86Zm-.06-1c.1-.07-.08.1,0,0Zm0-.21v-.06s0,0,0,0S132.49,27.68,132.42,27.63Zm0-.5q0-.15.12-.12v.12Zm0,.95h.06v.06h-.06Zm0,1.34s0,0,0-.06h.06C132.52,29.43,132.46,29.42,132.42,29.42Zm.09-2.06c-.12,0-.12-.14,0-.12S132.5,27.28,132.51,27.36Zm.17-.89c.13,0,0,.25.07.36C132.59,26.81,132.69,26.56,132.68,26.47Zm.1,1c0,.08,0,.13-.1.12a.12.12,0,0,1,0-.09A.17.17,0,0,1,132.78,27.51Zm0-1.4c-.13,0-.15-.09-.1-.15S132.78,26,132.78,26.11Zm0-2.42h-.07c0-.05,0-.05,0-.09S132.78,23.65,132.75,23.69Zm0,.48c0,.07-.15,0-.07,0S132.74,24.17,132.78,24.17Zm-.07-1.08s.07,0,.07.09S132.67,23.14,132.71,23.09Zm-.05-1.19c0-.06,0-.08,0-.12S132.79,21.94,132.66,21.9Zm.12,7.55c-.07,0-.08,0-.12,0s0-.09.12-.09Zm0-.27c-.12,0-.08-.12,0-.2s.08.08.09.14S132.75,29.15,132.75,29.18Zm.14-9.67s.06,0,.06-.09S133,19.54,132.89,19.51Zm0,2.63c0-.12,0,.18,0,0Zm.09.72a.16.16,0,0,0,0,.09h-.09v-.09ZM133,25v-.09H133V25Zm.06.47s-.06,0-.06,0S133,25.49,133,25.48Zm-.09-1.76v-.06H133v.06Zm.06,3v.09h-.09v-.09Zm-.06,1c.07,0,.08,0,.12,0S132.9,27.85,132.92,27.75Zm.12-.42H133v-.06H133ZM133,27.1V27a.11.11,0,0,1,.15,0C133.12,27.1,133,27.1,133,27.1Zm.3-.12V27C133.11,27.07,133.2,26.88,133.25,27Zm-.06,2.2c0-.06,0-.07,0-.11S133.29,29.21,133.19,29.18Zm.09-.29h-.09V28.8h.09Zm0-2c-.09,0-.06-.08-.12-.09s.09,0,.09-.06S133.32,26.82,133.28,26.86Zm-.12-.87a.09.09,0,0,1,.09-.06A.08.08,0,0,1,133.16,26Zm.27,2.66c0-.06,0-.08,0-.12a.24.24,0,0,0,.09,0C133.56,28.64,133.51,28.66,133.43,28.65Zm.06-.84c.09-.08-.08.09,0,0Zm0-3.82s-.05,0-.09-.06,0-.05.06-.09S133.56,24,133.52,24Zm0-.6c0-.11,0,.12,0,0Zm0,1.44c.1,0,.07.19-.06.15S133.51,24.88,133.52,24.83Zm0-.42c.1-.07-.07.1,0,0Zm0-.3s0,0,.06,0,0,0,0,.06,0,0-.06,0S133.46,24.14,133.46,24.11Zm0,1.13c0,.05,0,0-.06,0S133.49,25.21,133.49,25.24Zm0,.78c0-.05,0-.05,0-.09s.06.05,0,.09Zm0,.48v.06C133.35,26.59,133.44,26.4,133.49,26.5Zm-.06.6c0-.08,0-.13.09-.12S133.51,27.1,133.43,27.1Zm0-1.41h.12C133.62,25.8,133.41,25.83,133.46,25.69Zm.33,3.23c-.09,0-.1-.07-.09-.15s.08,0,.12,0S133.8,28.88,133.79,28.92Zm-.09-.54v-.09c.06,0,.08,0,.12,0S133.77,28.39,133.7,28.38Zm.12-1.31c-.09,0-.08,0-.15,0S133.85,27,133.82,27.07Zm0-2.06s-.11,0-.09-.09S133.84,24.93,133.82,25Zm.15,3.88v-.06c.06,0,.09,0,.09.06Zm.06-7H134v-.06H134Zm0,2.3s0,0-.06,0S134,24.18,134.06,24.17Zm-.06,2s0,0,.06,0,0,0,0,.06,0,0-.06,0S134,26.23,134,26.2Zm0-.93v-.08h.09v.08ZM134,27c-.11,0-.1-.05-.06-.09S134,27,134,27Zm0,.44a.06.06,0,1,1,0,.12C134,27.51,134,27.49,134,27.45Zm0-.12v-.06s0,0,0,0S134.07,27.38,134,27.33Zm.27-.53c.1-.08-.07.1,0,0Zm.33.44v.09c-.07,0-.08,0-.12,0S134.53,27.24,134.6,27.24Zm-.06.33c-.07,0-.07-.08,0-.12S134.58,27.53,134.54,27.57Zm-.06.21s.06-.05.09,0S134.43,27.9,134.48,27.78Zm-.09.63c-.08,0-.13,0-.12-.09S134.42,28.31,134.39,28.41Zm0-4.18c-.07,0-.15-.05-.12-.18S134.36,24.13,134.36,24.23Zm-.18-.87c.12,0,.13.12.09.21S134.14,23.45,134.18,23.36Zm-.09,1.05s-.19.12-.09,0S134.06,24.38,134.09,24.41Zm0-5.43c-.09.11-.1-.09,0,0Zm-.12-1.35c.12,0,.16.15,0,.12Zm0,10.12c.06,0,.08,0,.12,0S133.92,27.85,133.94,27.75Zm-.09-3.94c0,.12-.06.26-.18.3C133.6,24,133.66,23.78,133.85,23.81ZM133.76,17s0-.07,0-.11S133.78,17,133.76,17Zm0,2c.1-.08-.07.1,0,0Zm-.15,1.4c.07,0,.12-.06.18,0S133.57,20.58,133.58,20.44Zm0,1.46c-.07,0-.09,0-.15-.06S133.63,21.77,133.58,21.9Zm-.09-3.49s.07.05.06.12h-.09C133.45,18.46,133.48,18.45,133.49,18.41Zm0,.53V19c-.06,0-.09,0-.09-.1Zm0,7.77v.09c-.06,0-.08,0-.12,0S133.45,26.7,133.52,26.71Zm0,.77c0,.11-.16.18-.15,0C133.44,27.53,133.44,27.46,133.52,27.48Zm-.24-3.19q-.08,0-.06-.12h.09C133.33,24.23,133.29,24.25,133.28,24.29Zm0,.75c-.08,0-.1-.05-.09-.12S133.3,25,133.25,25Zm0,.17c.1-.07-.07.11,0,0Zm.06-2.29s-.05.06-.12.06S133.24,22.87,133.28,22.92Zm-.06-1.59s.06,0,.06,0S133.23,21.37,133.22,21.33Zm0,2s.05.06.09.06,0,.1-.12.09A.22.22,0,0,1,133.19,23.36Zm0,.39a.32.32,0,0,1,0-.18C133.28,23.57,133.28,23.78,133.16,23.75Zm.09.21h-.09a.12.12,0,0,0,0-.09C133.26,23.86,133.25,23.91,133.25,24Zm0,.51h-.09v-.09Q133.23,24.37,133.22,24.47Zm0-7.26h.06v.06h-.06Zm0,.45h.09v.12C133.2,17.79,133.18,17.74,133.19,17.66Zm0,4a.08.08,0,0,1-.09.06C133.09,21.63,133.15,21.64,133.19,21.63Zm.12,4.18c0,.05-.15,0-.24,0A.12.12,0,1,1,133.31,25.81ZM133,17.75c-.08,0-.06.05-.12,0S133.07,17.64,133,17.75Zm-.09.87c0,.09,0,.11,0,.18s-.08-.17-.23-.15C132.79,18.52,132.85,18.59,133,18.62Zm-.2,2.41c0,.08,0,.13-.09.12S132.62,21,132.75,21Zm-.07-1.19s0,0-.05,0S132.68,19.81,132.68,19.84ZM132.51,24a0,0,0,0,1-.06,0S132.47,24,132.51,24Zm-.12-.27c.09-.11.1.09,0,0Zm.12-.57v.12C132.37,23.27,132.35,23.09,132.51,23.12Zm-.12-.17v-.06c.06,0,.09,0,.09.06Zm.06-.6s0,0,.06,0A0,0,0,0,1,132.45,22.35Zm-.06-1q0-.13.12-.12T132.39,21.39Zm.06,3s0,.05,0,.09h-.09S132.44,24.45,132.45,24.41Zm0,.27c.06,0,.09,0,.09.06h-.09Zm.09.3s0,0-.06,0S132.48,25,132.51,25Zm0,.29c.1,0,.07.19.09.3C132.36,25.57,132.44,25.39,132.48,25.27Zm-.09-8.35a.11.11,0,0,1,.15,0c0,.09-.07.09-.15.08Zm.06,1.55h.06v.06h-.06Zm0-1.17v-.12h.06v.12Zm0,2.42a.22.22,0,0,1,.15,0q0,.12-.06.15C132.36,19.89,132.35,19.8,132.39,19.72Zm.15,6.48c.08.08-.09.22-.18.12S132.47,26.23,132.54,26.2Zm0,.33s-.06.07-.12.06S132.46,26.48,132.51,26.53Zm-.15.18h.15v.12C132.4,26.84,132.34,26.82,132.36,26.71Zm0-4.18h-.12C132.2,22.43,132.35,22.41,132.33,22.53Zm-.18-4.84h.09s0,0,0,.09h-.06Zm-.06.27s0,0,0,0h.06s0,0,0,0V18s0,0,0,0h-.06s0,0,0,0Zm.12,3.13c0,.06-.05.07-.12.06S132.17,21.06,132.21,21.09Zm-.12,5c-.05.05-.12,0-.12-.09S132.1,26,132.09,26.05ZM132,15.48v.06s0,0,0,0h-.06a0,0,0,0,0,0,0v-.06s0,0,0,0H132S132,15.48,132,15.48Zm-.15-.33H132v.12C131.87,15.3,131.87,15.23,131.88,15.15Zm0,.15a.27.27,0,0,1-.21.24C131.59,15.44,131.71,15.21,131.85,15.3Zm-.15,2.36c0,.11,0,.13-.15.12S131.61,17.66,131.7,17.66Zm0,5.52c0,.1-.2.13-.21,0S131.65,23.13,131.7,23.18Zm-.33-.32h.09c0,.06,0,.08,0,.12S131.36,22.92,131.37,22.86Zm0-.24a.08.08,0,0,1,.06.09C131.33,22.73,131.33,22.66,131.37,22.62Zm0-.24c0-.07.13-.05.09-.18s0,0,.09,0-.05.11,0,.21S131.38,22.41,131.34,22.38Zm0-.75v-.09C131.46,21.5,131.46,21.68,131.37,21.63Zm0-.27s.06,0,.06,0S131.43,21.36,131.4,21.36Zm-.09-2.27V19h.09v.08Zm0,2.72c.09,0,.14,0,.12.12S131.33,21.9,131.34,21.81Zm.18-1.31c0,.1-.1.1-.15.06S131.45,20.49,131.52,20.5Zm-.15-5.29s0,0-.06,0S131.35,15.22,131.37,15.21Zm0,2.69h.09c0,.07,0,.14,0,.18S131.28,18,131.34,17.9Zm-.12,5.37c-.2,0-.1-.19-.15-.32s.14,0,.21,0C131.18,23,131.28,23.15,131.22,23.27Zm-.15-2.47c.24-.13.08.25,0,0Zm0-.51c.11,0,.11.1.06.15S131,20.35,131.1,20.29Zm0,.72c.1,0,.1.06.09.14S131.05,21.06,131.1,21Zm.09.65a0,0,0,0,0,0,0s0-.05,0-.09S131.19,21.63,131.19,21.66Zm-.09.42c.08,0,.13,0,.12.09S131.07,22.18,131.1,22.08Zm.09-.12a.11.11,0,0,1-.06-.18C131.2,21.8,131.26,21.9,131.19,22Zm.06-6.93s-.05,0-.06,0S131.25,15,131.25,15Zm-.09.27c.15.07.13.31.06.45s-.12-.21,0-.21S131.07,15.37,131.16,15.3Zm-.06,1.08c.12,0,.1.12,0,.12Zm0,.27c.12,0,.16.26.12.35S131,16.74,131.07,16.65Zm-.21-1.56H131c0,.07,0,.08,0,.12S130.86,15.17,130.86,15.09Zm0,.72c.13,0,0,.17,0,0Zm0,.81c.11,0,.07.19-.06.15A.13.13,0,0,1,130.86,16.62Zm.06.89h-.09c0-.06,0-.08,0-.12S130.93,17.44,130.92,17.51Zm-.35-2.71c.07,0,.09,0,.09.12h-.12C130.52,14.85,130.56,14.84,130.57,14.8Zm0,2.06a.13.13,0,0,1,.06.2h-.12C130.47,16.93,130.51,16.94,130.57,16.86Zm-.18.35s-.06,0-.06,0S130.39,17.18,130.39,17.21Zm-.12-.77c.06,0,.09,0,.09.06h-.09Zm-.21-1.64c.06,0,.08,0,.12,0s-.05.06-.12.06Zm-.3-.21a.06.06,0,0,0,.06,0c.08,0,.09.06.06.15S129.75,14.68,129.76,14.59Zm0,1.28c.06,0,.06,0,.06.09s0,0-.06,0Zm-.27-.63q.09,0,.09.06h-.09Zm-.48-.15a.09.09,0,0,1,.06.09s0,0-.09,0S129,15.12,129,15.09Zm.09.54s-.06,0-.06.06-.07-.08,0-.12S129,15.62,129.07,15.63Zm-.39-.83c.07,0,.08,0,.12,0s0,.11-.12.09Zm-.14.83a0,0,0,0,1-.06,0S128.5,15.63,128.54,15.63Zm-.27-1c0,.06,0,.08,0,.12s-.05-.06-.09-.06S128.2,14.58,128.27,14.59Zm-.06.27c0-.12,0,.11,0,0Zm-.06.8c.15-.12.11.16,0,0Zm-.15,0a0,0,0,0,1-.06,0S128,15.63,128,15.63Zm-.12.21c.05,0,.11,0,.12,0S127.82,16,127.88,15.84Zm-.09-.18a.12.12,0,0,1-.12.06c0-.07-.06-.05,0-.15S127.74,15.63,127.79,15.66Zm-.15-.86s0,0,.09,0,0,.11-.12.09S127.63,14.84,127.64,14.8Zm-.27.8h.09a.18.18,0,0,1,0,.15S127.37,15.69,127.37,15.6Zm.09.3s0,0-.06,0A0,0,0,0,1,127.46,15.9Zm0-.75c0,.08-.1,0-.12,0S127.43,15.1,127.46,15.15Zm-.27-.53c0,.07-.08.06-.12,0S127.15,14.58,127.19,14.62Zm-.27.21s0,0-.06,0S126.9,14.83,126.92,14.83Zm-.32-.27c.13,0,0,.18,0,0Zm0,.27c.06,0,.06,0,0,.09h-.05C126.56,14.87,126.59,14.86,126.6,14.83Zm-.27.47h.09v.09h-.09Zm-1-.74c0,.12-.05.13-.09.18S125.24,14.52,125.37,14.56Zm0,.8c0,.05,0,0-.06,0S125.34,15.33,125.34,15.36Zm-.33-.83c.08,0,.1.06.06.15H125C125,14.58,125,14.6,125,14.53Zm.06.5a0,0,0,0,1-.06,0S125,15,125.07,15Zm-.06-.2c.11.09-.09.1,0,0Zm0,.71c.14,0,.14.34,0,.27C125,15.69,124.93,15.64,125,15.54Zm-.24-1c.09,0,.08.14,0,.12S124.73,14.6,124.74,14.56Zm0,.5c.05,0,.06,0,.09,0s0,.12-.12.09S124.73,15.11,124.74,15.06Zm-.2-.05h.06v.05h-.06Zm-.06.89s.06-.05.08,0S124.43,16,124.48,15.9Zm-.27-1.16s0,0,.09.06,0,.06-.12.06S124.2,14.78,124.21,14.74Zm.06,1.73s0,0-.09-.06,0,0,0-.06S124.32,16.42,124.27,16.47Zm-.06-1.08v-.06h.06v.06ZM124,15a.13.13,0,0,1,.12.12.18.18,0,0,1-.15,0A.19.19,0,0,1,124,15Zm0,.72v-.12C124.08,15.55,124.09,15.73,123.94,15.69Zm0-.3s.06,0,.06,0S124,15.43,124,15.39Zm0,.66c.1,0,0,.17-.09.15S124,16.1,124,16.05Zm0,.63c0,.08-.13.05-.12,0S124,16.67,124,16.68Zm-.09-.3s0,0-.06,0A0,0,0,0,1,123.94,16.38ZM123.73,15a.09.09,0,0,1,.06.09.18.18,0,0,1-.15,0C123.65,15.09,123.7,15.07,123.73,15Zm-.33.87c0-.12,0,.12,0,0Zm0,.51c0-.12,0,.12,0,0Zm-.06-.39s0,0,.06,0,0,0,0,.06,0,0-.06,0S123.34,16.05,123.34,16Zm-.21-.9c.09-.11.1.09,0,0Zm.12.81c-.1,0-.13,0-.18-.09S123.3,15.81,123.25,15.93Zm-.06.24h-.09v-.06C123.16,16.1,123.2,16.12,123.19,16.17Zm-.18.18a.12.12,0,0,1,.18,0c0,.11-.13.1-.18.06ZM123,14.86s0,0-.06,0A0,0,0,0,1,123,14.86Zm0-.33v.12C122.81,14.67,122.81,14.5,122.92,14.53Zm0,1.52c.11,0,.07.19-.06.15S122.86,16.09,122.89,16.05Zm0,.84H123V17h-.06Zm0-.24c0,.06,0,0,0,.12S122.81,16.62,122.92,16.65Zm-.3-1.08h.06v.06h-.06Zm0,.72c.11,0,.07.19-.06.15S122.64,16.34,122.65,16.29Zm0,.86v.06h-.06v-.06Zm-.09,1h.12C122.71,18.31,122.53,18.32,122.56,18.17Zm-.08-2.72s-.14,0-.12-.12A.09.09,0,1,1,122.48,15.45Zm-.15-.36s0,0,.06,0A0,0,0,0,1,122.33,15.09Zm0-.53a.18.18,0,0,1,.15,0,.09.09,0,0,0,0,.09Q122.3,14.7,122.33,14.56Zm0,1c.08,0,.09,0,.09.12s-.08,0-.12,0A.19.19,0,0,0,122.33,15.57Zm.09.27v.09c-.07,0-.08,0-.12,0S122.35,15.83,122.42,15.84Zm-.12.24s0,0,0,0,.09,0,.09.12S122.29,16.16,122.3,16.08Zm.12,1c0,.11.09.11.09.21s-.06,0-.06-.06-.12,0-.18,0S122.32,17.09,122.42,17.09Zm-.06,1.59a.09.09,0,0,1,.06.09C122.31,18.79,122.31,18.72,122.36,18.68Zm0,.38c-.07,0-.07-.07,0-.12S122.39,19,122.36,19.06Zm0-.86c-.08-.09.09.08,0,0Zm-.06-.27s0,0,0,0,.09,0,.09.12S122.29,18,122.3,17.93Zm.06-.33c.06,0,.06.08.06.15S122.29,17.65,122.36,17.6Zm0-.12a.09.09,0,0,1,0-.09.17.17,0,0,1,.12,0C122.42,17.44,122.41,17.49,122.33,17.48Zm-.21-2.68s0,0,.06,0,0,0,0,.06,0,0-.06,0S122.12,14.83,122.12,14.8Zm0,.71a.08.08,0,1,1-.06.15C122,15.57,122.08,15.55,122.12,15.51Zm-.09.54c.09,0,.09.05.15.06S122,16.18,122,16.05Zm0,.93v-.12c.08,0,.1,0,.09.12Zm.09.92V18h-.06V17.9ZM122,16.71c0-.08,0-.13.09-.12S122.11,16.72,122,16.71Zm.06,1.7s.07.05.06.12-.08,0-.12,0S122.08,18.45,122.09,18.41Zm-.06.24c.06,0,.08,0,.12,0a.13.13,0,0,1-.12.12C122,18.74,122.05,18.74,122,18.65Zm.06.89v-.06h.06v.06Zm0,.27c-.1,0-.11-.07-.06-.12S122.17,19.76,122.12,19.81Zm-.06-.89c.07,0,.07.11,0,.14s0,0-.09,0S122.05,19,122.06,18.92Zm-.09.23c.11-.06.23.08.12.15S122,19.25,122,19.15Zm-.45,1.71c-.06-.06,0-.12,0-.18a.19.19,0,0,0,.09,0C121.65,20.81,121.63,20.88,121.52,20.86Zm.12.26c-.06,0-.08,0-.12,0a.1.1,0,0,0,0-.08C121.63,21,121.65,21.05,121.64,21.12Zm-.12-1.43c.08,0,.13,0,.12.09S121.51,19.82,121.52,19.69Zm.09.3v.09h-.09V20Zm0-2.36c.06.05-.13.14-.09,0S121.58,17.61,121.61,17.63Zm0-.21c-.08-.09.09.08,0,0Zm0,1.14h-.06V18.5h.06Zm.06.21h-.09v-.06C121.61,18.7,121.64,18.71,121.64,18.77Zm-.09.27c0-.2.31-.13.3,0S121.66,19,121.55,19Zm.24.38c.08,0,.1,0,.09.12h-.12C121.75,19.48,121.78,19.46,121.79,19.42Zm0-1s0,0,.09,0,0,.1-.12.09S121.78,18.45,121.79,18.41Zm0-.18c0-.07.07-.07.15-.06S121.8,18.27,121.76,18.23Zm0,2.6v-.09C121.88,20.69,121.88,20.87,121.79,20.83Zm.06.2s0,.06,0,.09h-.06s0-.05,0-.09Zm-.06-.41a.14.14,0,0,1,0-.09.16.16,0,0,1,.12,0C121.89,20.58,121.87,20.63,121.79,20.62Zm0-.54s0-.06,0-.12C122,19.93,121.9,20.19,121.76,20.08Zm0-4.78s.11,0,.12,0S121.72,15.41,121.79,15.3Zm0,.27h.12a.09.09,0,0,1-.15.09A.19.19,0,0,0,121.79,15.57Zm0,.51c.1,0,.17,0,.15.12h-.15Zm.06.27s.05,0,.09.06,0,.05-.06.09,0-.06-.09-.06S121.81,16.39,121.82,16.35Zm-.06.77h.15A.08.08,0,1,1,121.76,17.12Zm.12.78q0,.13-.12.12C121.71,17.92,121.75,17.89,121.88,17.9Zm-.15.78h.12a.12.12,0,0,0,0,.09h-.09Zm-.21-.69v-.15h.15Q121.7,18,121.52,18Zm.12-1.28c-.06,0-.08,0-.12,0s0-.05.06-.09S121.65,16.64,121.64,16.71Zm-.06.24a.06.06,0,1,1,0-.12C121.62,16.89,121.59,16.9,121.58,17Zm-.06-.66a.11.11,0,0,1,.12.12C121.54,16.43,121.53,16.36,121.52,16.29Zm.06-.84a.13.13,0,0,1,.06.12A.07.07,0,0,1,121.58,15.45Zm-.09.42q.09,0,.09.06h-.09Zm0,1.22h.12a.21.21,0,0,1,0,.15C121.52,17.23,121.47,17.2,121.49,17.09Zm.06,3.11c.08,0,.09.06.06.15a.22.22,0,0,1-.15,0C121.47,20.26,121.52,20.24,121.55,20.2Zm.06,1.34v0a.86.86,0,0,0,.14-.18,1.43,1.43,0,0,0,.15-.33,1.31,1.31,0,0,0,.12-.35s0-.09,0-.13h0c0-.07,0-.15,0-.22l.06-.28h-.06c0-.06,0-.08,0-.12s0,0,0,.05l.09-.35c0-.11,0-.24,0-.36l0-.05a0,0,0,0,1,0,0s0,0,0-.06h0a2.12,2.12,0,0,0,.11-.21c0-.11,0-.24.1-.35a.35.35,0,0,1,0-.08h0a.14.14,0,0,1,0-.15.09.09,0,0,1,.09.07l.1-.15c.06-.11.12-.2.19-.31s.13-.19.2-.29a3.21,3.21,0,0,1,.19-.31,3.07,3.07,0,0,1,.26-.25,3.08,3.08,0,0,1,.24-.27,3.14,3.14,0,0,1,.31-.18h0a.2.2,0,0,1,.06-.12l0,0a1.07,1.07,0,0,1,.16-.14l0,0h0s0,0,0-.06,0,0,.06,0h0l.21-.09a3.31,3.31,0,0,1,.33-.15l.12,0v0h.07l.15,0c.12,0,.25,0,.37,0s.23,0,.36,0a.9.9,0,0,0,.27-.07.71.71,0,0,0,.26-.13c.09-.1.18-.3.28-.3s.22.2.29.29a.48.48,0,0,0,.26.16,1.16,1.16,0,0,0,.29.08l.36.05h0s0,0,.11,0a.93.93,0,0,1,.24,0,3.31,3.31,0,0,1,.33.15,1.27,1.27,0,0,0,.18.06s0,0,0,0,.05,0,.09.06,0,0,0,0l0,0a3.14,3.14,0,0,1,.31.18,3.24,3.24,0,0,1,.32.17A1.68,1.68,0,0,1,130,17c0-.11.18-.13.15,0a.08.08,0,0,1-.08,0c.09.08.16.16.24.24a3.11,3.11,0,0,1,.23.28,3,3,0,0,1,.2.29.47.47,0,0,0,.06.09s0,0,.09,0a.07.07,0,0,1,0,.08.57.57,0,0,1,.08.13c.05.11,0,.24.08.35a1.91,1.91,0,0,1,.1.34c0,.12.08.23.09.35s0,.24,0,.36,0,.23,0,.35l0,.11,0,0s0,0,0,0,0,.15-.05.21a3.42,3.42,0,0,1-.13.34.61.61,0,0,0-.05.18.08.08,0,0,1,0,.15v0a3.11,3.11,0,0,1-.23.28,2.16,2.16,0,0,1-.21.29,2,2,0,0,1-.29.22l-.14.09h.09c0,.08,0,.13-.09.12v-.11l-.14.07a.07.07,0,0,1-.09.05c-.09,0-.18.07-.27.09a.9.9,0,0,1-.16,0v.11a.22.22,0,0,1-.15,0l0-.06-.08,0h-.08a.07.07,0,0,1-.12,0l0,0h-.22l0,0s0,0,0,.06,0,0-.06,0,0,0,0-.06a1.76,1.76,0,0,1-.31,0,1.65,1.65,0,0,1-.32-.07.94.94,0,0,1-.15-.06s-.06,0-.07,0a.2.2,0,0,1-.08,0,1.38,1.38,0,0,1-.28-.19,2.59,2.59,0,0,1-.38-.56,1.2,1.2,0,0,1,0-.42v-.05h0c0-.07,0-.08,0-.12h0a.51.51,0,0,1,0-.25c0-.09-.07-.19,0-.26a.73.73,0,0,1,.09.13.64.64,0,0,1,.19-.21.68.68,0,0,1,.33-.09.58.58,0,0,1,.32,0,.64.64,0,0,1,.28.18.67.67,0,0,1,.11.72,1,1,0,0,1-.22.36s0,0,0,0,0,.05,0,.05a.5.5,0,0,0,.26-.06s0,0-.05,0,0,0,0-.06,0,0,.06,0,0,0,0,.06l.14-.07a1,1,0,0,0,.35-.25.88.88,0,0,0,.18-.33.86.86,0,0,0,0-.28.12.12,0,0,1,0-.23,2,2,0,0,0,0-.24c0-.12,0-.25,0-.37A2.07,2.07,0,0,0,129,19v0c-.06,0-.09,0-.09-.08H129c0-.06-.05-.11-.07-.16h0a.1.1,0,0,1,0-.08.3.3,0,0,0,0-.08,1.27,1.27,0,0,0-.21-.29,1.72,1.72,0,0,0-.25-.28,3.45,3.45,0,0,0-.34-.14,2.3,2.3,0,0,0-.35-.1,2.25,2.25,0,0,0-.36-.06c-.13,0-.25-.05-.36-.05a3.37,3.37,0,0,0-.36.06,1.24,1.24,0,0,0-.29.1s0,.05,0,.11h-.09a.11.11,0,0,1,0-.1h0a2,2,0,0,0-.3.21,1.21,1.21,0,0,0-.42.57,2.11,2.11,0,0,0-.26.68,3.58,3.58,0,0,0-.09.35c0,.12,0,.25,0,.37s0,.24,0,.36,0,.24,0,.36,0,.25,0,.37a.57.57,0,0,0,.12.35,1.54,1.54,0,0,0,.31.21c.16.09.29.15.29.22s-.13.13-.28.23a1.68,1.68,0,0,0-.29.24v.05h0a.34.34,0,0,0-.06.12c.05,0,.12,0,.1.1a.1.1,0,0,1-.13,0v.11c0,.13,0,.25,0,.37s0,.25,0,.37,0,.11,0,.16.09.08,0,0v.18c.06,0,.13,0,.11.09a.1.1,0,0,1-.09,0c0,.06,0,.11,0,.17h.07c0,.07,0,.1,0,.11v0l0,.11a.12.12,0,0,1,0,.07,1.54,1.54,0,0,1,0,.17l.06.32s0,0,0,0,.1.06.09.15a.15.15,0,0,1-.07,0l0,.09c.09,0,.15.12.1.17s0,0,0,0v0a2.4,2.4,0,0,0,.17.32l0,.07c.06-.05.19-.06.12.12h0L126,26l.08.07a.17.17,0,0,1,0-.1.11.11,0,0,1,.09.15h-.07l.15.11,0,0s0,0,0,0a.11.11,0,0,1,.11.1l.19.07a1.37,1.37,0,0,0,.36,0,1.84,1.84,0,0,0,.33,0c0-.07.06-.12.08-.18s.06,0,.12,0a.22.22,0,0,1,0,.08l.12-.07,0,0h0a1,1,0,0,0,.28-.17,2.36,2.36,0,0,0,.2-.31l.06-.15s-.05-.06,0-.12a.1.1,0,0,1,.08,0,.79.79,0,0,0,0-.09,1.8,1.8,0,0,0,.12-.35c0-.11,0-.24,0-.37s0-.24,0-.37,0-.23-.06-.36-.07-.23-.1-.35,0-.09,0-.12.08,0,.12,0h.09v-.05h.09v0h.15a.08.08,0,0,1,.15,0l.33.09a1.92,1.92,0,0,1,.35.18v-.05c.06,0,.06.05,0,.07a1.62,1.62,0,0,1,.32.17,1.3,1.3,0,0,1,.34-.21,1.89,1.89,0,0,1,.38-.16.78.78,0,0,1,.22,0,.27.27,0,0,1-.07-.08c0-.1.21-.05.21.07h0c.13,0,.27-.08.41-.09l.07,0s0,0,0,0a1.27,1.27,0,0,0-.06.18s.08,0,.07.08a.09.09,0,0,1-.11,0l0,.09a.06.06,0,0,1,0,0,.68.68,0,0,1,.21.06.67.67,0,0,1-.06.12.29.29,0,0,1-.17,0,1.42,1.42,0,0,1,0,.2c0,.13-.07.25-.09.37l0,.1h0v.12h-.06a.83.83,0,0,1,0,.15s0,0,0,0,0,0,0-.07.07.11,0,.15,0-.05-.08-.06-.07.19-.09.29a3.18,3.18,0,0,1-.16.32,3.4,3.4,0,0,1-.12.34,3.07,3.07,0,0,1-.17.31c0,.1-.08.2-.13.29a.1.1,0,0,1,0,.09h0l-.18.19a.09.09,0,0,1-.06.06,1.57,1.57,0,0,1-.21.24l-.11.16c.09,0,.16.05.11.16s-.14,0-.15-.12a.31.31,0,0,1-.07.09,2.51,2.51,0,0,1-.29.2l-.06,0v0l-.06,0-.18.12-.06,0s0,.05,0,0l-.23.13c-.11,0-.23.08-.34.12l-.34.1-.36.06c-.1,0-.19.05-.29.06a.26.26,0,0,1,0,.15h-.12c0-.07,0-.09,0-.13l-.16,0a.15.15,0,0,0,0,.08c-.06,0-.11,0-.11-.06h-.11c0,.06-.09.05-.12,0h-.14a.05.05,0,0,1,0,0,.2.2,0,0,1-.14,0v0h-.12v0c-.07,0-.11,0-.12-.06l-.1,0c0,.09-.1.11-.17.08v-.12l-.07,0h-.05v.14a.21.21,0,0,1-.15,0c0-.08,0-.12.13-.12l-.29,0-.31-.08h0l-.18,0v0H125v-.05l-.09,0-.12,0s0,.05,0,.11-.12,0-.12-.09,0,0,0,0h0l-.2-.07a3.21,3.21,0,0,1-.3-.21l-.24-.14s0,0,0,.06a.17.17,0,0,1-.15,0,.31.31,0,0,1,.05-.1l-.18-.17h-.08v-.07l-.21-.17s0,0-.06,0,0-.06,0-.1-.11-.13-.17-.2a.05.05,0,0,1,0-.05l-.09-.14s0,0,0,0-.23-.11-.15-.21h0a.61.61,0,0,1-.07-.14h0s0,0,0,0l0-.1-.08-.14h-.09c0-.06,0-.08,0-.11a.43.43,0,0,0,0-.07c0-.12-.06-.24-.1-.36s-.13-.21-.17-.32-.07-.24-.1-.36a.93.93,0,0,0,0-.13s0,0,0,0-.15,0-.12-.09a.1.1,0,0,1,.11,0c0-.06,0-.12,0-.18h-.06v-.09h0a1.1,1.1,0,0,1,0-.18s0,0,0,0a0,0,0,0,1,0,0v-.06l0-.12,0,0a.09.09,0,0,1,0-.07l0-.13q0-.2-.06-.36a2.33,2.33,0,0,0,0-.28c0,.05-.14.1-.1,0s.06-.05.09,0h0v0c0-.05,0-.09-.07-.14l0,0a.1.1,0,0,1,0-.12s0,0,0,0a.43.43,0,0,0-.1-.09.17.17,0,0,1-.12,0s0-.05,0-.07l0,0-.27-.18c-.14-.09-.25-.18-.25-.25s.07-.08.17-.13a.13.13,0,0,1,0-.08l.05,0,.07,0a2.29,2.29,0,0,0,.24-.22c0-.05,0-.11,0-.16A.11.11,0,0,1,121.61,21.54Zm9.19.09s0,0,0,0,.1,0,.09.12S130.79,21.71,130.8,21.63Zm.09,1v.06C130.75,22.71,130.84,22.52,130.89,22.62Zm-.12-1.56h.15C131,21.23,130.74,21.21,130.77,21.06Zm.06,1.77h.09c0,.1,0,.12-.06.18S130.78,22.9,130.83,22.83Zm.09-.9a.12.12,0,0,0-.09,0v-.09s.06,0,.06,0S131,21.89,130.92,21.93Zm0-.51c-.12,0-.09-.16.06-.15S130.91,21.37,130.89,21.42Zm-.26,2.09a.17.17,0,0,1-.15,0c0-.07.1-.15.18-.09S130.62,23.46,130.63,23.51Zm-.09-.65h.15a.31.31,0,0,1,0,.15C130.57,23,130.51,23,130.54,22.86Zm0-.48s.06,0,.06,0S130.6,22.38,130.57,22.38Zm-.24.63c-.07,0-.13-.12-.06-.18h.09a.21.21,0,0,1,0,.15S130.33,23,130.33,23Zm0,.14c.17,0-.11.15,0,0Zm-.06-1.22v-.15c.12,0,.13.07.15.15Zm.18,1.52c0,.11-.12.14-.21.18S130.29,23.36,130.42,23.45ZM130,23a.12.12,0,0,1,.09.14C130,23.19,129.91,23.1,130,23Zm-.09-.36H130v.09Q129.9,22.77,129.91,22.68Zm.09-.24v-.06a0,0,0,0,0,0,0C130.09,22.34,130.07,22.48,130,22.44Zm0,.54c0-.07,0-.08,0-.12S130.13,23,130,23Zm0,.44a.21.21,0,0,1,.12,0C130.15,23.52,130,23.55,130,23.42Zm.12-1.22a.21.21,0,0,1-.15,0C130,22,130.17,22,130.12,22.2Zm-.36.39c.09,0,.09.06.09.15s0,0-.06,0S129.72,22.63,129.76,22.59Zm-.06-.09h-.06v-.09h.09C129.74,22.46,129.7,22.46,129.7,22.5Zm0-.36q0-.08.12-.06v.09C129.79,22.18,129.77,22.15,129.73,22.14Zm.15.84c-.06,0-.08,0-.12,0s.05-.05.06-.09S129.89,22.91,129.88,23Zm-.06.65a.12.12,0,0,0,.09,0c0,.09,0,.13-.15.12S129.81,23.69,129.82,23.63Zm-.24-.62h-.15a.21.21,0,0,1,0-.15c.1,0,.09,0,.15.06A.11.11,0,0,0,129.58,23Zm0,.5c-.05,0-.07-.05-.06-.12h.09C129.59,23.46,129.56,23.47,129.55,23.51Zm-.09-1.34v-.09c.06,0,.08,0,.12,0S129.53,22.18,129.46,22.17Zm-.21.66c.07,0,.07.07.06.15S129.19,22.87,129.25,22.83Zm0-.42c0-.06.06-.08.09-.12S129.31,22.52,129.22,22.41Zm.06.8a0,0,0,0,0,0,0s0,0,0-.09S129.28,23.18,129.28,23.21Zm.06.15a.21.21,0,0,1,0,.18h-.15C129.19,23.43,129.19,23.36,129.34,23.36Zm-.42-.41a.11.11,0,0,1,.18-.06C129.06,23,129,23,128.92,23Zm.12.47s0,0-.06,0S129,23.39,129,23.42Zm-.27-.15h-.12c0-.09,0-.4.15-.38C128.78,23.06,128.83,23.14,128.77,23.27Zm-.09-.65s.12,0,.12,0S128.62,22.73,128.68,22.62Zm0-.21v-.09c.07,0,.08,0,.12,0S128.75,22.42,128.68,22.41Zm-.11.51c-.06,0-.08.06-.15.06s0-.15,0-.18S128.56,22.84,128.57,22.92Zm-.45,2.2c0-.12,0-.17.15-.14S128.22,25.13,128.12,25.12Zm.12.15c-.06.06-.06,0-.12,0S128.26,25.17,128.24,25.27Zm-.09-.47v-.09C128.23,24.66,128.23,24.84,128.15,24.8Zm0-.3s0,0,0-.06,0,0,.06,0,0,0,0,.06S128.18,24.5,128.15,24.5Zm0-.15c-.07-.06,0-.13,0-.18S128.3,24.41,128.15,24.35Zm0-.33V23.9q.13,0,.12.12Zm.06-.24c-.07,0-.08,0-.12,0s0-.07.12-.06Zm-.09-.77a.15.15,0,0,1,.06-.21s0,.05.09.06A.13.13,0,0,1,128.15,23Zm0-.42c.11,0,.11.14,0,.12S128.13,22.65,128.18,22.59Zm0-.27q.15,0,.15.15Q128.12,22.5,128.15,22.32Zm0-.15s0,0,0-.06,0,0,.06,0,0,0,0,.06S128.18,22.17,128.15,22.17Zm-.3,3.31c.06-.05.18,0,.15.09S127.84,25.58,127.85,25.48Zm0,.39v-.15C128,25.66,128,25.93,127.85,25.87Zm-.12.21q-.11,0-.09-.09C127.7,26,127.73,26,127.73,26.08Zm-.12-.24c0-.09,0-.07.06-.12S127.69,25.87,127.61,25.84Zm0-.27a.13.13,0,0,1,.21-.12A.13.13,0,0,1,127.58,25.57Zm.06-2.95c.09,0,.07,0,.12.06S127.58,22.72,127.64,22.62Zm0-.33h.09c0,.09,0,.08,0,.15S127.61,22.36,127.61,22.29Zm.12-.33s-.06,0-.12,0,0-.11.06-.15A.11.11,0,0,1,127.73,22Zm-.12.87c.11,0,.1.06.15.09s-.14.07-.18,0S127.62,22.88,127.61,22.83Zm0,.29c.08,0,.13,0,.12.09S127.59,23.23,127.61,23.12Zm0,.42a.32.32,0,0,1,0-.18C127.73,23.36,127.73,23.58,127.61,23.54Zm.15.3c0,.1,0,.17-.06.27a.2.2,0,0,1-.12-.24A.32.32,0,0,1,127.76,23.84Zm-.09.3s.07.05.06.12a.22.22,0,0,1-.15,0C127.55,24.18,127.64,24.19,127.67,24.14Zm.06.3q0,.14-.12.12A.09.09,0,1,1,127.73,24.44Zm0,.39h-.12a.11.11,0,0,1,0-.15C127.7,24.68,127.75,24.72,127.73,24.83Zm-.15.41s0-.06.12,0,0,.07,0,.11S127.62,25.25,127.58,25.24Zm0-.23c.11-.09.19,0,.36-.06C127.93,25.13,127.59,25.25,127.58,25Zm.33-.18v-.09H128v.09Zm.09.36v.11c-.08,0-.13,0-.12-.09A.16.16,0,0,1,128,25.19Zm-.12-.66v-.09a.11.11,0,0,1,.15,0A.11.11,0,0,1,127.88,24.53Zm.09-.21c-.08,0-.06-.06-.12-.06s.08-.14.21-.12S128,24.27,128,24.32Zm0-1.61h-.09v-.09Q128,22.6,128,22.71Zm-.09-.27v-.09H128v.09Zm.12.77a.12.12,0,0,1-.12,0v-.12C128,23.12,128,23.14,128,23.21Zm0,.21c0,.06,0,.07-.12.06S128,23.38,128,23.42Zm0,.21c0,.1-.09.09-.12.15S127.94,23.53,128.06,23.63Zm-.75,1.64a.1.1,0,0,0,0-.08c.11,0,.12-.05.21,0A.15.15,0,0,1,127.31,25.27Zm.15.21s0,0,0,.06,0,0-.06,0,0,0,0-.06S127.43,25.48,127.46,25.48Zm0-3.82s0,0-.06,0,0,0,0-.06,0,0,.06,0S127.43,21.63,127.43,21.66Zm0,.15v.06h-.06v-.06Zm-.12.54c.24-.13.08.26,0,0Zm0,2.09h.09v.12C127.36,24.59,127.36,24.52,127.37,24.44Zm.09.6h-.09V25Q127.48,24.94,127.46,25Zm-.12-.75c0-.06,0-.08,0-.12S127.48,24.32,127.34,24.29Zm0-.24a.09.09,0,1,1,.12-.12A.11.11,0,0,1,127.37,24.05Zm0-.9c0-.11,0,.12,0,0Zm.06.21v.09c-.06,0-.08,0-.12,0S127.38,23.37,127.43,23.36Zm-.33.54c.1,0,.11.05.12.12A.09.09,0,1,1,127.1,23.9Zm.12.57a.19.19,0,0,0,0,.09c-.08,0-.1,0-.09-.12S127.18,24.46,127.22,24.47Zm-.15.77a.21.21,0,0,1,.12,0v.12C127.11,25.34,127.06,25.32,127.07,25.24Zm.12.24c0,.05,0,.05,0,.09h-.06v-.09Zm-.12-2.83c0-.06.14,0,.09,0h-.06S127.09,22.65,127.07,22.65Zm0,.74h.12c0,.1,0,.08,0,.15A.13.13,0,0,1,127.07,23.39Zm0,.33s.05-.07.12-.06S127.12,23.77,127.07,23.72Zm.09-1.67s.07.05.06.12S127.1,22.11,127.16,22.05Zm0,0c-.15.06-.14-.13-.09-.18S127.16,21.93,127.16,22ZM127.07,26c.11,0,.11.11.06.15S127,26,127.07,26Zm0,.3s0,0,0,0,.1,0,.09.12S127.06,26.34,127.07,26.26Zm.12-1.43c-.08,0-.06-.06-.12-.06C127.07,24.57,127.32,24.68,127.19,24.83Zm-.09-3.53c.09,0,.17,0,.15.09A.09.09,0,0,1,127.1,21.3Zm0-1.55c.11,0,.21,0,.18.12S127.05,19.88,127.07,19.75Zm.66-.81a.15.15,0,0,0,0,.1C127.51,19.05,127.61,18.83,127.73,18.94Zm0-.53c.06,0,.08,0,.12,0a.14.14,0,0,1-.15.09C127.66,18.46,127.69,18.45,127.7,18.41Zm0,1.1a.17.17,0,0,1-.21.15A.13.13,0,0,1,127.73,19.51Zm-.33-1.46c0-.06,0-.08,0-.12s.08.06.09.12Zm0,.45c.1-.07-.07.1,0,0Zm.06,1c-.09.11-.1-.09,0,0Zm.54-.45h-.06V19s0,0,.09,0S128,19,128,19.06Zm-.09.57c0-.09,0-.05,0-.15s.08,0,.12,0S128,19.65,127.91,19.63Zm0-1.37a.26.26,0,0,1,.09-.18C128,18.12,128,18.3,127.88,18.26Zm.09.21v.06h-.06v-.06Zm0,.21a.22.22,0,0,1,0,.15c-.07,0-.07-.08-.06-.15Zm.3.15c-.09,0-.13,0-.12-.09S128.28,18.75,128.27,18.83Zm-.12-.36s0,0,.06,0A0,0,0,0,1,128.15,18.47Zm0,.47h.09c0,.14,0,.25-.15.24A.45.45,0,0,1,128.18,18.94Zm.12.84c0,.07-.08.07-.12,0S128.26,19.74,128.3,19.78Zm.12-.8c.1,0,.1.1.06.14S128.35,19,128.42,19Zm.06.77v.06h-.06v-.06Zm.29.3v.06C128.63,20.14,128.72,20,128.77,20.05Zm-.12-.27a0,0,0,0,1,.06,0S128.66,19.82,128.65,19.78Zm0-1.22s.06-.06.08,0S128.58,18.67,128.63,18.56Zm.23,1.34a0,0,0,0,1,.06,0S128.9,19.9,128.86,19.9Zm-2.09,6a.21.21,0,0,1,0-.12.32.32,0,0,1,.18,0C126.94,25.84,126.86,25.85,126.77,25.87Zm.09.42c0-.12,0,.12,0,0Zm0-.84v.15c-.13,0-.12-.06-.09-.15Zm-.06-.18s0,0,0-.06a.09.09,0,0,1,.06.09S126.87,25.28,126.83,25.27Zm-.09-.26c0-.08.1-.06.18-.06C127,25.11,126.82,25,126.74,25Zm-.26-.21c0-.21.27-.36.2,0h.12s0-.08,0-.12.07.08.12.09C126.85,24.91,126.66,24.88,126.48,24.8Zm.06,1.13a.18.18,0,0,1,.14,0c0,.07,0,.13-.06.15S126.54,26,126.54,25.93Zm0,.42v-.09C126.62,26.22,126.62,26.39,126.54,26.35Zm0-.63s.06,0,.05.09h-.08A.19.19,0,0,0,126.57,25.72Zm0-.15c0-.05,0-.06,0-.12h.08C126.68,25.55,126.61,25.56,126.54,25.57Zm-.18.21c-.08,0-.1-.06-.06-.15S126.34,25.72,126.36,25.78Zm0,.18h.06V26h-.06Zm0-.36a.12.12,0,0,1,0-.09.17.17,0,0,1,.12,0C126.39,25.56,126.38,25.61,126.3,25.6Zm0-.5V25h.09s0,0,0,.09Zm0-.27q0-.18.15-.15Q126.45,24.86,126.27,24.83Zm.12-3v.06h-.06v-.06Zm0-1Zm0-.21c-.06-.07,0-.19.12-.15C126.46,20.54,126.45,20.62,126.36,20.62Zm-.06-1.79q0-.15.12-.12T126.3,18.83Zm0,3.49c.17,0,.14.21,0,.15A.17.17,0,0,1,126.3,22.32Zm0,1.13s0,0,.06-.09.06.06.06.12S126.31,23.46,126.27,23.45Zm.09.24s0,0-.06,0S126.36,23.66,126.36,23.69Zm-.12-.74c0-.07,0-.08,0-.12s.06,0,.12,0A.11.11,0,0,1,126.24,23Zm.15,1.13c-.37,0,.15-.34,0,0Zm-.12.36a.06.06,0,0,0,.06,0s.06.05.06.12-.06,0-.06,0S126.26,24.51,126.27,24.44Zm0-.18q0-.14.15-.12C126.45,24.27,126.33,24.32,126.27,24.26Zm0-1.49a.17.17,0,0,1,0-.21c.09,0,.12,0,.15.09A.13.13,0,0,1,126.3,22.77Zm.15-1.91s.16-.1.23,0-.09.16-.2.18S126.42,20.94,126.45,20.86Zm.2-2.6s-.05,0-.05,0S126.65,18.23,126.65,18.26Zm-.05-.3c0-.05,0-.05,0-.09s.07.05,0,.09Zm.08.78c0,.09-.06.09-.14.09v-.09A.1.1,0,0,1,126.68,18.74Zm-.17,5.52v-.12h.14C126.68,24.25,126.61,24.27,126.51,24.26Zm.11.18v.06h-.05v-.06Zm0-1.82c0,.07,0,.13-.08.12v-.12Zm0-1v.06C126.51,21.69,126.6,21.5,126.65,21.6Zm0,1.29s0,0,0,0h-.05v-.09S126.61,22.88,126.65,22.89Zm0,.23c0,.1,0,.14-.11.12S126.56,23.11,126.65,23.12Zm0,.78c0,.06,0,.08,0,.12s-.09,0-.08-.12Zm-.05-.15c-.08,0,0-.16.08-.12S126.61,23.69,126.6,23.75Zm.08-2.36a.1.1,0,0,1-.14,0C126.52,21.27,126.72,21.22,126.68,21.39Zm-.11-.89c.13,0,0,.18,0,0Zm0-1.56c.05,0,.05,0,.05.07s0,0,0,0S126.57,19,126.57,18.94Zm0,1.41v-.06c.05,0,.09,0,.08.06Zm.2-2.12c-.07,0-.11-.08,0-.12S126.87,18.21,126.8,18.23Zm.12-.33V18h-.12Q126.79,17.88,126.92,17.9Zm-.09.57v.12h-.12Q126.7,18.44,126.83,18.47Zm0,1.7c-.11,0-.07,0-.06-.12S126.82,20.09,126.8,20.17Zm.12.66c0,.05,0,.06-.12.06V20.8C126.87,20.78,126.88,20.82,126.92,20.83Zm0,.56h-.09V21.3h.09Zm0,1c.1-.07-.07.1,0,0Zm0,.18c0,.1,0,.17-.12.15s0-.14,0-.18A.24.24,0,0,0,126.92,22.59ZM126.77,24s.06-.05.06-.09a.14.14,0,0,0,.09,0C126.94,24,126.82,24,126.77,24Zm0,.36c-.06-.07,0-.14.06-.18S126.92,24.31,126.8,24.32Zm0-.69c.09,0,.08.14,0,.12S126.83,23.67,126.83,23.63Zm.09-.15h-.09c0-.05,0-.05,0-.09h.06Zm-.15,1.08c0-.13.11-.19.18-.12S126.89,24.59,126.77,24.56Zm.15-1.35h-.09v-.09H127A.24.24,0,0,0,126.92,23.21Zm-.09-.26a.14.14,0,0,0,0-.09H127V23C126.89,23,126.87,23,126.83,23Zm0-1.77c0-.11.09-.18.15-.12S126.9,21.19,126.8,21.18Zm0-2.47c.11,0,.21.08.15.15A.13.13,0,0,1,126.8,18.71Zm.15-.15s-.09,0-.09,0S127,18.49,127,18.56Zm-.92.24v-.09h.09v.09Zm.09,2.06H126V20.8C126.09,20.79,126.12,20.8,126.12,20.86ZM126,18.47s.07,0,.12,0v.09C126.09,18.52,126,18.56,126,18.47Zm0,3.91a.19.19,0,0,1,.12,0v.12C126.07,22.48,126,22.46,126,22.38Zm.06-2v-.06h.06v.06Zm0-.57c.1-.07-.07.1,0,0ZM126,18.32a.18.18,0,0,1,0-.15c.08,0,.17,0,.18.09S126.1,18.32,126,18.32Zm0,4.21c.08,0,.13,0,.12.15S126,22.63,126,22.53Zm.09.42H126c0-.05,0-.06,0-.09S126.12,22.9,126.09,23Zm0,2.5v.12H126Q126,25.44,126.12,25.45Zm-.09-.21s0,0,.06,0A0,0,0,0,1,126,25.24Zm.09.51a.07.07,0,0,1-.12.06S126.05,25.74,126.12,25.75Zm0-.68H126c0-.07,0-.08,0-.12S126.13,25,126.12,25.07Zm-.12-.51q0-.16.15-.15C126.15,24.51,126.1,24.57,126,24.56Zm0-1.17s0,0,0,0,.16.06.15.18S126,23.51,126,23.39Zm-.18-4.47c.08.09,0,.15-.06.23S125.64,18.89,125.82,18.92Zm-.09-.3c0-.06,0-.07.12-.06s0,.08,0,.12S125.77,18.62,125.73,18.62Zm.15.59c0,.11-.06.13-.15.09S125.79,19.18,125.88,19.21Zm0,1.59v.09h-.09V20.8Zm0-.48c.09-.08-.08.09,0,0Zm0-.75v-.09h.09c0,.05,0,.05,0,.09Zm0,2h.12c0,.06,0,.08,0,.12S125.75,21.62,125.76,21.54Zm-.33-1.46c0-.11.14-.15.21-.09s0,.06,0,.12A.32.32,0,0,1,125.43,20.08Zm.18.45v.09a.08.08,0,0,1-.09-.09Zm0-.72h-.09v-.06Q125.58,19.74,125.58,19.81Zm-.06-.36s0,.06.09.06S125.43,19.52,125.52,19.45Zm-.18,1.94c-.06.06-.14,0-.12-.09S125.35,21.31,125.34,21.39Zm-.09-1.58c0-.12,0,.12,0,0Zm.51,4.84a.13.13,0,0,1,.09.15A.09.09,0,0,1,125.76,24.65Zm.09.54a.07.07,0,0,1-.09,0C125.75,25.18,125.8,25.19,125.85,25.19Zm0,.26q.06.14-.09.15C125.72,25.52,125.74,25.47,125.85,25.45Zm-.09-1c.08,0,.13,0,.12.09S125.73,24.54,125.76,24.44Zm.12-.18h-.09v-.12C125.87,24.13,125.89,24.18,125.88,24.26Zm-.24-.24c0-.15.15-.19.24-.12S125.72,24.08,125.64,24Zm.06.57s0,0-.06,0A0,0,0,0,1,125.7,24.59Zm-.21-.18c.06,0,.08,0,.12,0s0,.08,0,.12S125.48,24.49,125.49,24.41Zm.09.27v.09h-.09v-.09Zm-.12-.51c.12-.05.19,0,.12.12S125.45,24.26,125.46,24.17Zm.15-.09c-.15.05-.19-.1-.12-.18h.09A.32.32,0,0,1,125.61,24.08Zm0-1c-.15,0-.11-.12-.06-.21s0,0,.09,0S125.56,23,125.58,23.07Zm0,.14h-.12A.06.06,0,1,1,125.61,23.21Zm-.12.54a1.27,1.27,0,0,0,0-.39h.09c0,.14,0,.19.06.33S125.59,23.78,125.49,23.75Zm.27-1.43c.08,0,.13,0,.12.09S125.73,22.43,125.76,22.32Zm.12.27v.12C125.74,22.73,125.73,22.55,125.88,22.59Zm-.09.24s.09,0,.09.12a.14.14,0,0,1-.15,0C125.71,22.86,125.79,22.89,125.79,22.83Zm-.06.26a.31.31,0,0,1,.15,0c0,.06,0,.07,0,.12S125.72,23.2,125.73,23.09Zm.12.3s0,0,0,.06,0,0-.06,0,0,0,0-.06S125.82,23.39,125.85,23.39Zm-.12.33v.06h-.06v-.06Zm-.48-.74a.11.11,0,0,1,0-.15.11.11,0,0,1,.12.12A.21.21,0,0,1,125.25,23Zm.09.5h-.12c0-.06,0-.08,0-.12S125.35,23.4,125.34,23.48ZM121,18.62c.07,0,0,.05.09.06S120.94,18.7,121,18.62Zm.09.95s0,0-.09,0,0,0,0-.06A.09.09,0,0,1,121.07,19.57Zm.21-1.61V17.9h.06V18Zm0,.24c0-.12,0,.12,0,0Zm0-.75s0,0,0-.06,0,0,.06,0,0,0,0,.06S121.31,17.45,121.28,17.45Zm0-.27h-.06v-.06h.06Zm0,1.26h.06c0,.06,0,0-.09.06S121.28,18.47,121.28,18.44Zm.09,3.1s0,0,0,.06,0,0-.06,0,0,0,0-.06S121.34,21.54,121.37,21.54Zm-.06-1.16c-.07,0-.07-.11,0-.15S121.35,20.34,121.31,20.38Zm-.06.12c.13,0,0,.17,0,0Zm.09-4.15v.09a.08.08,0,0,1-.09-.09Zm-.06.24s0,.05.09.06-.05.06-.12.06S121.27,16.63,121.28,16.59Zm-.06,2.59h.12c0,.05,0,.1-.12.09Zm.06.27c.18,0-.11.14,0,0Zm0,.48s.07.05.06.12-.08,0-.12,0S121.27,20,121.28,19.93Zm-.06,1.94a.18.18,0,0,1-.15,0c0-.11.08-.1.09-.18S121.22,21.79,121.22,21.87Zm-.06-6.81c0,.07-.06,0-.06.09s0-.05,0-.09Zm-.09.27c0-.11,0,.12,0,0Zm0,.24c.1-.07-.07.1,0,0Zm0,.51v.12A.06.06,0,1,1,121.1,16.08Zm-.12,1h.09c0,.05,0,.06,0,.09H121Zm0,.6c.11,0,.12.23,0,.27S121,17.81,121,17.72Zm.09,9.55c0,.07,0,.08,0,.12s-.11,0-.12-.12A.14.14,0,0,1,121.07,27.27Zm-.18-.5c0,.12-.2.12-.21,0S120.87,26.7,120.89,26.77Zm-.18-3.94c.11,0,.16-.06.15.09S120.7,23,120.71,22.83Zm.09-7s0,.08,0,.12S120.76,15.91,120.8,15.87Zm0,.57c0-.12,0,.12,0,0Zm0,.15c.07,0,.06,0,.06.09s0,0-.06,0Zm0,1c.07,0,.08,0,.12,0s0,.07-.12.06Zm0,.6h.06v.09h-.09C120.74,18.24,120.77,18.24,120.77,18.2Zm0,.45a.11.11,0,0,1,.12.12s0,0,0,0a.13.13,0,0,1-.12-.12S120.74,18.67,120.74,18.65Zm.06.56c0,.05,0,0-.06,0S120.8,19.18,120.8,19.21Zm0,.21c.12,0,.09.12.09.21S120.65,19.46,120.77,19.42Zm0,.39s0,0,0-.09h.06v.09Zm0,.69c.13,0,0,.17,0,0Zm0,.21c.08,0,.1,0,.09.12h-.12C120.7,20.76,120.73,20.75,120.74,20.71Zm.09.56v.09h-.12a.09.09,0,0,0,0-.09Zm0,.27c0,.08-.11.07-.15,0S120.8,21.5,120.83,21.54Zm-.15.3a.11.11,0,0,1,.15,0c0,.05,0,.06,0,.12S120.67,21.93,120.68,21.84Zm.06.3v-.09c.05,0,.06,0,.09,0s0,0,0,.06Zm0,.18c.18,0-.1.14,0,0Zm-.06.24h.15C120.88,22.72,120.64,22.72,120.68,22.56Zm-.06.51c.1,0,.11-.06.21,0s0,.14,0,.17S120.61,23.19,120.62,23.07Zm0,.47c.1-.07-.07.1,0,0Zm-.12.36s.06,0,.1,0S120.46,24,120.5,23.9Zm0-8.78s0,0,0,0A0,0,0,0,1,120.53,15.12Zm0,3.32h.12v.12Q120.44,18.59,120.48,18.44Zm.09,1.13h-.09v-.06Q120.57,19.49,120.57,19.57Zm-.09,1.94c.07,0,.09,0,.09.12h-.12C120.43,21.57,120.47,21.55,120.48,21.51Zm.09.54q0,.12-.12.12C120.36,22.1,120.5,22,120.57,22.05Zm-.21-7.22c0,.09,0,.13-.12.11S120.23,14.81,120.36,14.83Zm-.24.71c.14,0,.19.1.3.15,0,.08-.13.1-.24.09A.29.29,0,0,1,120.12,15.54Zm0,.3q0,.08-.12.06A.07.07,0,0,1,120.09,15.84Zm-.24,2.27c.08,0,.13,0,.12.09S119.83,18.21,119.85,18.11Zm0,1.94h-.12q0-.14.12-.12Zm0-2.36h-.09v-.06Q119.79,17.62,119.79,17.69Zm-.09-.57h.06v.09a.24.24,0,0,0-.09,0S119.7,17.15,119.7,17.12Zm.09,3.35a.22.22,0,0,1,0,.15c-.07,0,0-.09-.09-.09S119.72,20.46,119.79,20.47Zm-.12.51h.09c0,.08,0,.16-.09.14A.1.1,0,0,1,119.67,21Zm0-3.77h-.15c0-.11.07-.13.15-.15Zm0-2.15v.09c-.06,0-.08,0-.12,0S119.54,15.06,119.61,15.06Zm-.15,1q.09,0,.09.06h-.09Zm0,.6s0,0-.06,0S119.47,16.65,119.49,16.65Zm-.06.71h.15c0,.11,0,.14-.15.12Zm0,.51c.12,0,0,.18-.09.15S119.43,17.92,119.46,17.87Zm-.3,1.82a0,0,0,0,0,.06,0s0,.05.09.06S119.13,19.8,119.16,19.69Zm.12-3.52s0,0,0,0,0-.06,0-.09S119.28,16.13,119.28,16.17Zm-.36-.87c.11.09-.09.1,0,0Zm0,.93a.19.19,0,0,1,.24,0q0,.16-.09.21C118.93,16.45,118.88,16.38,118.89,16.23Zm0,.36s0,0,0,0,.1,0,.09.12S118.85,16.67,118.86,16.59Zm-1.22,1.19s0,0-.06,0,0,0,0-.06,0,0,.06,0S117.64,17.75,117.64,17.78Zm-.06-.36v-.06h.06v.06Zm.27,0s.08,0,.09,0S117.83,17.46,117.85,17.39Zm.33.6c-.11,0-.11-.1-.06-.15S118.22,18,118.18,18Zm-.09-.27c0-.09.07-.11.12-.06S118.15,17.73,118.09,17.72Zm0-.54s0,0,0-.06,0,0,.06,0,0,0,0,.06S118.12,17.18,118.09,17.18Zm.12-.23c-.08,0-.13,0-.12-.09s0,0,0,0S118.21,16.87,118.21,17Zm0-1q-.15,0-.12-.12h.12Zm-.06.24s0,0,0,0,0-.06,0-.09S118.17,16.13,118.18,16.17Zm.44,2s.06,0,.09,0,0,.11-.12.09S118.61,18.18,118.62,18.14Zm0-.42v-.06c.06,0,.1,0,.09.06Zm.12,1s-.15,0-.12-.06a.16.16,0,0,1,.12,0Zm0-2.69c-.07.25-.24-.14,0,0Zm0-.27c0,.1-.07.06-.09.12S118.68,15.74,118.77,15.78Zm-.15-.77s.12,0,.09.11S118.58,15.05,118.62,15Zm.12.38s0,0-.06.06-.11,0-.12-.12S118.73,15.26,118.74,15.39Zm-.3,0c-.12,0-.08-.16.07-.15S118.46,15.37,118.44,15.42Zm-.08-.39h.11C118.5,15.17,118.32,15.19,118.36,15Zm0,.84s.06,0,.08,0S118.31,16,118.36,15.87Zm0,.72c.23-.13.07.25,0,0Zm.06.62v-.09C118.47,17.08,118.47,17.26,118.39,17.21Zm-.06.09c.12,0,.2.11.14.21A.13.13,0,0,1,118.33,17.3Zm.06.63s0,0,0,0S118.41,17.92,118.39,17.93Zm0,.21v.06C118.3,18.23,118.39,18,118.44,18.14Zm.07.24c0,.11-.07.09-.09.15s-.21-.11-.15-.21S118.39,18.4,118.51,18.38Zm-.36-3.08s0,0,.06,0,0,0,0,.06,0,0-.06,0S118.15,15.33,118.15,15.3Zm-.06.27s.08,0,.09-.06.08.08.09.15a.18.18,0,0,1-.15,0S118.08,15.63,118.09,15.57Zm.09,1a.22.22,0,0,1,0,.15C118.06,16.73,118.07,16.56,118.18,16.59Zm-.18.62s0,.06-.09.06-.06-.06-.12-.06C117.75,17,118,17,118,17.21Zm-.42-.53h.06c0,.06,0,.05-.09.06S117.58,16.71,117.58,16.68Zm0,.15s0,0,.09,0,.06.26,0,.26S117.53,16.9,117.58,16.83Zm-.09.74a.09.09,0,0,1,.06.09s0,0-.09,0S117.49,17.6,117.49,17.57Zm-.06-.62a.14.14,0,0,1-.15,0C117.27,16.82,117.46,16.77,117.43,17Zm-.24,0c-.09.11-.1-.1,0,0Zm-.18.29h.09c0,.05,0,.06,0,.09H117Z"/><polygon class="cls-2" points="115.27 22.59 114.77 22.59 114.77 22.1 115.13 22.1 115.13 21.86 114.77 21.86 114.77 21.43 115.24 21.43 115.24 21.18 114.48 21.18 114.48 22.84 115.27 22.84 115.27 22.59"/><rect class="cls-1" x="117.26" y="22.57" width="0.27" height="0.27"/><path class="cls-2" d="M136.62,22.6v.15h.22V24h.24V22.4H137A1.81,1.81,0,0,1,136.62,22.6Z"/><path class="cls-2" d="M115.86,22.61c-.09,0-.15-.08-.16-.25l-.28,0a.45.45,0,0,0,.43.46.4.4,0,0,0,.45-.42c0-.45-.58-.59-.58-.87,0-.1,0-.16.14-.16s.14,0,.16.18l.27,0a.41.41,0,0,0-.4-.4.39.39,0,0,0-.44.41c0,.48.58.56.58.89C116,22.56,116,22.61,115.86,22.61Z"/><polygon class="cls-2" points="116.68 22.84 116.96 22.84 116.96 21.43 117.24 21.43 117.24 21.18 116.41 21.18 116.41 21.43 116.68 21.43 116.68 22.84"/><path class="cls-1" d="M42.14,22.5c1-.43,2.06-1.58,2.06-4.42,0-3.76-1.74-5.2-5.13-5.2H34.89a.07.07,0,0,0-.07.07v17.5a.07.07,0,0,0,.07.07h2.89a.07.07,0,0,0,.07-.07V23.36a.07.07,0,0,1,.07-.07c.46,0,1.1,0,1.42-.07a.08.08,0,0,1,.09.06l2.11,7.17a.1.1,0,0,0,.09.07h2.94a.05.05,0,0,0,0-.07l-2.53-7.86A.07.07,0,0,1,42.14,22.5Zm-3.22-1.7h-1a.07.07,0,0,1-.07-.07V15.44a.07.07,0,0,1,.07-.07h1c1.64,0,2.25.61,2.25,2.71S40.56,20.8,38.92,20.8Zm32.25,9.72a.08.08,0,0,0,.08-.07l.52-3.77a.08.08,0,0,1,.08-.07H75a.08.08,0,0,1,.08.07l.52,3.77s0,.07.07.07h2.8a.05.05,0,0,0,0-.07L75.33,13a.08.08,0,0,0-.08-.07H71.63a.1.1,0,0,0-.09.07l-3.22,17.5a.06.06,0,0,0,.06.07ZM73.41,16.4h0s0,0,0,.07l1.18,7.43a.06.06,0,0,1-.06.07h-2.3a.06.06,0,0,1-.06-.07ZM60.71,30.52H63.6a.08.08,0,0,0,.08-.07L67.34,13s0-.07,0-.07H64.44a.08.08,0,0,0-.08.07L62.18,25.12h0s0,0,0-.07L59.94,13a.08.08,0,0,0-.08-.07H57A.06.06,0,0,0,57,13l3.66,17.5A.1.1,0,0,0,60.71,30.52ZM90,12.88h-2.6a.07.07,0,0,0-.07.07V23h0s0,0,0-.06L83.65,13a.12.12,0,0,0-.1-.07H80.88a.07.07,0,0,0-.07.07v17.5a.07.07,0,0,0,.07.07h2.6a.07.07,0,0,0,.07-.07V19.5h0s0,0,.05.07l3.81,10.88s0,.07.09.07H90a.06.06,0,0,0,.06-.07V13S90.09,12.88,90,12.88Zm-60.65,0H25.75a.09.09,0,0,0-.08.07l-3.22,17.5s0,.07.05.07h2.8a.08.08,0,0,0,.08-.07l.52-3.77a.07.07,0,0,1,.07-.07h3.19a.08.08,0,0,1,.08.07l.51,3.77a.08.08,0,0,0,.08.07h2.8s.06,0,0-.07L29.46,13A.08.08,0,0,0,29.38,12.88ZM28.72,24H26.41a.05.05,0,0,1-.05-.07l1.17-7.44V16.4h0s0,0,0,.07l1.18,7.43A.06.06,0,0,1,28.72,24ZM16.16,12.64c-3.18,0-4.64,2-4.64,4.52v9.08c0,2.49,1.46,4.52,4.64,4.52a4.19,4.19,0,0,0,4.49-4.52v-2a.06.06,0,0,0-.06-.06h-2.9a.06.06,0,0,0-.06.06v2.06c0,1.15-.37,1.78-1.47,1.78s-1.61-.63-1.61-1.95V17.23c0-1.32.39-2,1.61-2,.78,0,1.47.63,1.47,2.12v1.3s0,.07.06.07h2.9a.06.06,0,0,0,.06-.07V17.47C20.65,14.84,19.19,12.64,16.16,12.64ZM56.47,30.45,53.25,13s0-.07-.08-.07H49.54a.08.08,0,0,0-.08.07l-3.22,17.5s0,.07,0,.07h2.8a.07.07,0,0,0,.07-.07l.52-3.77a.08.08,0,0,1,.08-.07H53a.07.07,0,0,1,.07.07l.52,3.77a.08.08,0,0,0,.08.07h2.79A.06.06,0,0,0,56.47,30.45Zm-4-6.48H50.2a.06.06,0,0,1-.06-.07l1.19-7.5h0s0,0,0,.07l1.17,7.43S52.57,24,52.51,24Z"/><path class="cls-1" d="M11.75,8.78H138.25a.23.23,0,0,1,.23.23v1.34a.23.23,0,0,1-.23.23H11.75a.24.24,0,0,1-.24-.24V9A.24.24,0,0,1,11.75,8.78Z"/><path class="cls-1" d="M11.75,56.81H138.25a.23.23,0,0,1,.23.23v1.34a.23.23,0,0,1-.23.23H11.75a.24.24,0,0,1-.24-.24V57a.24.24,0,0,1,.24-.24Z"/></svg>