<svg id="Layer_1" data-name="Layer 1" xmlns="http://www.w3.org/2000/svg" viewBox="0 0 150 65"><defs><style>.cls-1{fill:#717989;fill-rule:evenodd;}</style></defs><title>client logos</title><path class="cls-1" d="M106.26,14.63C99.82,11.77,90.69,8.35,75,8.35c-14.4,0-26.65,3.24-31.59,6.26a6.13,6.13,0,0,0-2.88,5.17V51.05a4.3,4.3,0,0,0,3.22,3.88c.52.19,12.94,4.65,31.25,4.65,17.46,0,28.23-3.54,31.13-4.63l.09,0a4.26,4.26,0,0,0,3.25-3.87V19.31C109.47,16.56,107.94,15.44,106.26,14.63Zm-.53,35.84a228.7,228.7,0,0,1-30.73,2,259.57,259.57,0,0,1-30.73-2,2.07,2.07,0,0,1-1.53-1.9q0-14.19,0-28.39a4.09,4.09,0,0,1,2.39-3.44c3.11-1.66,15.79-5.29,29.86-5.29,19.76,0,28,4.84,30.72,6.11a2.76,2.76,0,0,1,1.53,2.55q0,14.23,0,28.46A2,2,0,0,1,105.73,50.47Z"/><path class="cls-1" d="M104.64,41.31h0a1,1,0,0,0,0,2,.94.94,0,0,0,.93-1A1,1,0,0,0,104.64,41.31ZM105,43a.85.85,0,0,1-.1-.33c0-.14-.11-.2-.29-.2h-.14V43h-.23V41.7a2.54,2.54,0,0,1,.43,0,.55.55,0,0,1,.39.1.32.32,0,0,1,.12.27.31.31,0,0,1-.24.29v0c.11,0,.16.14.21.31a.81.81,0,0,0,.09.31Z"/><path class="cls-1" d="M104.61,41.85h-.18v.4h.15c.17,0,.32-.06.32-.2S104.82,41.85,104.61,41.85Z"/><path class="cls-1" d="M53.41,34.39c-1.83,0-2.27,1.79-2.27,3.33,0,1.72.52,3.28,2.27,3.28s2.39-1.5,2.39-3.28C55.8,36.32,55.33,34.39,53.41,34.39Z"/><path class="cls-1" d="M106.73,22.85c0-1.92-1.14-2.8-3-3.41a77.86,77.86,0,0,0-21.61-3.23c-9.57,0-14.75,1.09-17.41,2.9a4.56,4.56,0,0,0-2.29,3.61c0,1.59,1.72,2.35,1.72,4.17a2.52,2.52,0,0,1-2.49,2.45,2.6,2.6,0,0,1-2.5-2.45c0-1.9,1.6-2.68,1.6-4.19,0-1.78-1.7-3.13-3.43-3.62-5-1.44-10.69.07-13.14,1.94a2.47,2.47,0,0,0-.92,1.83V48.58A1.55,1.55,0,0,0,44.36,50c1,.13,1.91.24,2.86.35,2.29.25,4.59.48,6.88.68C61,51.6,68,52,75,52c7.18,0,14.38-.33,21.53-1q3.28-.28,6.54-.68c.86-.11,1.71-.21,2.57-.34a1.53,1.53,0,0,0,1.1-1.38ZM54.09,43.39a3.13,3.13,0,0,1-3.17-1.93h0V42a1.26,1.26,0,0,1-1.36,1.44c-.93,0-1.36-.5-1.36-1.44V29.48a1.51,1.51,0,0,1,3,0v4.08h0a3.3,3.3,0,0,1,3-1.52c3.17,0,4.63,2.7,4.63,5.58C58.81,41.52,56.61,43.39,54.09,43.39Zm9-1.76a1.57,1.57,0,1,1-3.12,0V33.31a1.57,1.57,0,1,1,3.12,0Zm17.74,0a1.57,1.57,0,1,1-3.12,0V36.19a1.89,1.89,0,0,0-1.82-2.14,1.62,1.62,0,0,0-1.54,1.65v5.92a1.57,1.57,0,1,1-3.12,0V35.67a1.61,1.61,0,0,0-1.55-1.62,1.89,1.89,0,0,0-1.82,2.14v5.43a1.57,1.57,0,1,1-3.12,0v-6A3.91,3.91,0,0,1,69,31.46a4.56,4.56,0,0,1,3.74,2,4.87,4.87,0,0,1,3.81-2,3.91,3.91,0,0,1,4.27,4.19Zm4.88,0a1.57,1.57,0,1,1-3.12,0V33.31a1.57,1.57,0,1,1,3.12,0Zm-1.55-11a1.72,1.72,0,1,1,1.72-1.72A1.72,1.72,0,0,1,84.18,30.6Zm6.41,11a1.57,1.57,0,1,1-3.12,0V29.73a1.57,1.57,0,1,1,3.12,0Zm10.29,1.9c-.57,0-1-.35-1.5-1l-3.81-4.72h0v3.79a1.57,1.57,0,1,1-3.12,0V29.73a1.57,1.57,0,1,1,3.12,0v5.83L99,32.25a2.12,2.12,0,0,1,1.41-.67A1.39,1.39,0,0,1,101.68,33a1.52,1.52,0,0,1-.61,1.23L98.3,36.69,102,41a1.61,1.61,0,0,1,.39,1.06A1.47,1.47,0,0,1,100.88,43.53Zm3.76,0a1.21,1.21,0,1,1,0-2.42h0a1.21,1.21,0,0,1,0,2.42Z"/></svg>