<svg id="Layer_1" data-name="Layer 1" xmlns="http://www.w3.org/2000/svg" viewBox="0 0 150 65"><defs><style>.cls-1{fill:#717989;}</style></defs><title>client logos</title><path class="cls-1" d="M57.29,33.36a13.78,13.78,0,0,0-4.61-10.81A18.18,18.18,0,0,0,40.4,18.38a22.63,22.63,0,0,0-7.32,1.24A18.7,18.7,0,0,0,27,23.22a17.65,17.65,0,0,0-4.39,6A17.21,17.21,0,0,0,21,36.29,13.79,13.79,0,0,0,25.64,47.1q4.56,4,12.17,4.06a23.3,23.3,0,0,0,7.43-1.24,18,18,0,0,0,6.2-3.61,17.08,17.08,0,0,0,4.39-5.85,19.09,19.09,0,0,0,1.46-7.1M40.51,15.68h0c6.2,0,11.26,1.57,15,4.84a16.39,16.39,0,0,1,5.63,13,18.62,18.62,0,0,1-1.8,8.22,20,20,0,0,1-5.18,6.76,23.1,23.1,0,0,1-7.55,4.17,27.7,27.7,0,0,1-9.12,1.46c-6,0-10.81-1.68-14.53-4.95a16.23,16.23,0,0,1-5.52-12.84,19.41,19.41,0,0,1,6.87-15.1,20.23,20.23,0,0,1,7.32-4.05,25.58,25.58,0,0,1,8.9-1.46"/><path class="cls-1" d="M38.26,45l-4.73-1.69A6.79,6.79,0,0,1,29,45,6.07,6.07,0,0,1,23.62,42a9.32,9.32,0,0,1-1.13-6.42,12.21,12.21,0,0,1,3.27-6.31,8.82,8.82,0,0,1,6.42-2.81A5.12,5.12,0,0,1,36,28l.67-3.71c.45-2.48,1.58-3.83,3.27-3.83s2.36,1.24,1.91,3.83Zm-3.49-9.35h0a4.69,4.69,0,0,0-.34-3.15,2.62,2.62,0,0,0-2.25-1.13,3.79,3.79,0,0,0-2.71,1.24,5.9,5.9,0,0,0-1.57,3.16,4,4,0,0,0,.45,3.15,2.59,2.59,0,0,0,2.25,1.24,3.75,3.75,0,0,0,2.59-1.24,5.65,5.65,0,0,0,1.58-3.27"/><path class="cls-1" d="M57.86,35.61a11.06,11.06,0,0,1-3.61,6.65,10.06,10.06,0,0,1-7,2.7,6.7,6.7,0,0,1-5.86-2.7,8.31,8.31,0,0,1-1.24-6.65A11.38,11.38,0,0,1,43.78,29a10,10,0,0,1,7-2.71,6.89,6.89,0,0,1,6,2.71,8.18,8.18,0,0,1,1.13,6.64m-5.07-.11h0a4.23,4.23,0,0,0-.34-2.93,2.35,2.35,0,0,0-2.36-1.46,3.73,3.73,0,0,0-2.93,1.46,6.29,6.29,0,0,0-1.35,2.93,5.22,5.22,0,0,0,.22,3A2.36,2.36,0,0,0,48.4,40a3.57,3.57,0,0,0,2.92-1.47,4.32,4.32,0,0,0,1.47-3"/><path class="cls-1" d="M73.29,41.13C72.84,43.72,71.71,45,70,45s-2.36-1.24-1.91-3.83l1.12-6.19a5.72,5.72,0,0,0,0-2.82,2.07,2.07,0,0,0-2.14-1.24c-1.8,0-2.93,1.35-3.49,3.94l-1.8,10L57.29,41l1.92-10.7,4.62-3.38a2.81,2.81,0,0,1,.9,1.24,6.72,6.72,0,0,1,5-1.8c2.14,0,3.61.56,4.4,1.8a6.66,6.66,0,0,1,.67,5.07Z"/><path class="cls-1" d="M92.1,33.47l-2.48,3.61h-10c-.12,2,1,3,3.49,3a8.19,8.19,0,0,0,3.38-.79l1.24,4.17A12.73,12.73,0,0,1,82,44.85a7.4,7.4,0,0,1-6.08-2.7,7.82,7.82,0,0,1-1.35-6.65A11.48,11.48,0,0,1,78.13,29a9.91,9.91,0,0,1,6.76-2.71,7,7,0,0,1,5.18,2,7.33,7.33,0,0,1,2,5.18m-5,.23h0a2.62,2.62,0,0,0-.67-2.26,2.91,2.91,0,0,0-2.14-.9,4,4,0,0,0-2.48.9,4.65,4.65,0,0,0-1.58,2.26Z"/><path class="cls-1" d="M104.38,39a6.64,6.64,0,0,1-3,4.39A9.27,9.27,0,0,1,96.15,45a8.73,8.73,0,0,1-3.94-.79,2.64,2.64,0,0,1-1.8-3,3,3,0,0,1,.79-1.58,2.21,2.21,0,0,1,1.57-.67,4.43,4.43,0,0,1,2.26.79,5.22,5.22,0,0,0,2.36.79c.9,0,1.47-.34,1.58-1s-.79-1.24-2.48-1.91a9.54,9.54,0,0,1-3.15-1.92,3.47,3.47,0,0,1-.9-3.49A6.53,6.53,0,0,1,95.25,28a8.23,8.23,0,0,1,4.85-1.46,10,10,0,0,1,5.63,1.69l-2.93,3.94a4.72,4.72,0,0,0-1.47-.68,8.51,8.51,0,0,0-2-.45c-.9,0-1.35.34-1.47.91s.57,1,1.81,1.46a15.56,15.56,0,0,1,1.46.68,9,9,0,0,1,2.7,1.91,3.76,3.76,0,0,1,.57,3"/><path class="cls-1" d="M113.05,23.11a3.46,3.46,0,0,1-1.24,2.14,3.59,3.59,0,0,1-2.25.9,2.65,2.65,0,0,1-2-.9,2.37,2.37,0,0,1-.45-2.14A3.2,3.2,0,0,1,108.32,21a3.63,3.63,0,0,1,2.36-.9,2.42,2.42,0,0,1,1.92.9,2.48,2.48,0,0,1,.45,2.14m-3.49,17.8h0l-6,3.83,2.48-14.08c.45-2.59,1.57-3.83,3.26-3.83s2.37,1.24,1.92,3.83Z"/><path class="cls-1" d="M116.54,39l-1,1.47a2.25,2.25,0,0,0-1.47-.45,1.53,1.53,0,0,0-1.12.56,3.58,3.58,0,0,0-.57,1.12,1.71,1.71,0,0,0,.12,1.13,1.08,1.08,0,0,0,1,.45,1.75,1.75,0,0,0,.68-.11,2,2,0,0,1,.67-.11.58.58,0,0,1,.45.22.85.85,0,0,1,.11.56,1.51,1.51,0,0,1-1,1,3.38,3.38,0,0,1-1.46.22,2.33,2.33,0,0,1-2.14-1,3.51,3.51,0,0,1-.45-2.48,4.83,4.83,0,0,1,1.35-2.48,3.57,3.57,0,0,1,2.59-1,3.67,3.67,0,0,1,1.12.23c.68.22,1,.45,1.13.67m6.08,2.59h0a4.13,4.13,0,0,1-1.35,2.48,3.74,3.74,0,0,1-2.59,1,2.34,2.34,0,0,1-2.14-1,3,3,0,0,1-.45-2.48,4.21,4.21,0,0,1,1.35-2.48,3.79,3.79,0,0,1,2.59-1,2.71,2.71,0,0,1,2.26,1,4.33,4.33,0,0,1,.33,2.48m-2,0h0a1.79,1.79,0,0,0-.12-1.12,1,1,0,0,0-.9-.57,1.17,1.17,0,0,0-1,.57,1.93,1.93,0,0,0-.45,1.12,1.83,1.83,0,0,0,.11,1.13,1,1,0,0,0,.9.56,1.56,1.56,0,0,0,1.13-.56,5.55,5.55,0,0,1,.34-1.13m11.26,2h0c-.11.9-.56,1.46-1.24,1.46s-.9-.45-.68-1.46l.45-2.25c.23-1,0-1.47-.67-1.47s-1,.45-1.24,1.47L128,43.72c-.11.9-.56,1.47-1.24,1.47s-.9-.45-.68-1.47l.46-2.25c.22-1,0-1.46-.57-1.46s-1,.45-1.24,1.46l-.67,3.72-1.69-1.47.67-3.94,1.69-1.24a1.42,1.42,0,0,1,.34.45,2.28,2.28,0,0,1,1.69-.67,2,2,0,0,1,1.8.9,3.26,3.26,0,0,1,2.14-.9,1.71,1.71,0,0,1,1.58.78,3,3,0,0,1,.23,1.81Z"/><path class="cls-1" d="M115,24.69V22.21h-.9v-.34h2.26v.34h-.91v2.48Zm1.58,0h0V21.87h.56l.68,2a.86.86,0,0,1,.11.45c0-.11.11-.23.11-.45l.68-1.92h.45V24.8h-.34V22.43L118,24.8h-.33l-.79-2.37V24.8h-.34Z"/></svg>