<svg id="Layer_1" data-name="Layer 1" xmlns="http://www.w3.org/2000/svg" viewBox="0 0 150 65"><defs><style>.cls-1{fill:#717989;}</style></defs><title>client logos</title><path class="cls-1" d="M111.56,39l-4.45,8-4.48-8H99.75L105.82,49v6.6h2.55V49L114.44,39Zm-41,16.66h2.55V48.37h6.69V46.21H73.06V41.13h8.38V39H70.51Zm27.42-12c0-3.55-2.52-4.71-6.4-4.71H84.76V55.61h2.55V48.37H91l4.14,7.24H98L93.5,48.25C96.22,47.82,97.93,46.56,97.93,43.66ZM87.31,46.21V41.13H91.5c2.19,0,3.81.41,3.81,2.53s-1.62,2.55-3.9,2.55ZM41,39h-5.4V55.61H41c5,0,8-2.38,8-8.33S46,39,41,39Zm-.19,14.47H38.11V41.13h2.66c3.81,0,5.62,1.74,5.62,6.15S44.58,53.42,40.77,53.42Zm22.48-4c0,2.36-.69,4.22-3.9,4.22s-3.93-1.86-3.93-4.22V39H52.87V49.3c0,3.67,1.38,6.57,6.48,6.57s6.47-2.9,6.47-6.57V39H63.25ZM75,30.48c11.19,0,14.28-6.41,14.28-14.49V7.29H77.84V1.07H72.16V7.29H60.72V16C60.72,24.07,63.76,30.48,75,30.48ZM66.36,12.13h5.8v6.22h5.68V12.13h5.8V16.3c0,5.2-1.52,9.3-8.61,9.3s-8.67-4.1-8.67-9.3Z"/></svg>