<svg id="Layer_1" data-name="Layer 1" xmlns="http://www.w3.org/2000/svg" viewBox="0 0 150 65"><defs><style>.cls-1{fill:#717989;}</style></defs><title>client logos</title><path class="cls-1" d="M81.51,11.86c.27-.54.64-1.19,1.11-2.15.22-.47.46-1,.69-1.6A7.91,7.91,0,0,0,83.63,7a4,4,0,0,0,0-1.93,2.76,2.76,0,0,0-1.27-1.72A3.17,3.17,0,0,0,80.79,3a5,5,0,0,0-1.61.37,14.47,14.47,0,0,0-2.12,1.08A105.8,105.8,0,0,0,61.44,17a179.21,179.21,0,0,0-18,20.74A183.71,183.71,0,0,1,63,18.86,113,113,0,0,1,77.85,8.66l-.53.88c-.33.56-.56,1-.69,1.21a62.42,62.42,0,0,0-4.24,10.38A22.51,22.51,0,0,0,71.45,26a8.54,8.54,0,0,0,.3,3,4.65,4.65,0,0,0,1,1.71,4,4,0,0,0,1.75,1.14,6.24,6.24,0,0,0,3.34.06c.12,0,.73-.17,1.32-.36s4.62-1.65,6.26-2.23l4.88-1.73a11.23,11.23,0,0,1,4.54-.77c3,.14,5.4,2.11,7,4a37.23,37.23,0,0,1,4.69,7,37.25,37.25,0,0,0-4.09-7.43,14.14,14.14,0,0,0-2.89-3.11A9.63,9.63,0,0,0,95,25.29a13,13,0,0,0-5.28.41l-3.16.82-8.34,2.17s-2.15.52-2.75-.06-.24-2.48-.24-2.48A21.32,21.32,0,0,1,77,20.73c.6-1.37,1.3-2.82,2-4.08C79.93,14.7,81.23,12.41,81.51,11.86Z"/><path class="cls-1" d="M8.66,45.23h2.56c.12.31.25.6.38.9s.26.59.4.89l3,6.62h0l2.91-6.76c.12-.27.24-.55.35-.82s.22-.55.34-.83h2.57l0,.36a4.14,4.14,0,0,0-.74.1,1,1,0,0,0-.42.21.66.66,0,0,0-.19.39,3.22,3.22,0,0,0,0,.65L20,54a1.6,1.6,0,0,0,.07.42.63.63,0,0,0,.21.28,1.17,1.17,0,0,0,.43.16,4.42,4.42,0,0,0,.74.07l0,.38H17.74l0-.36a2.65,2.65,0,0,0,.6-.1.65.65,0,0,0,.35-.21.76.76,0,0,0,.15-.4,6,6,0,0,0,0-.63L18.64,47l0,0-1.82,4.23q-.9,2.09-1.79,4.26l-.52.05c-.59-1.38-1.19-2.73-1.79-4s-1.21-2.65-1.82-4l0,0-.21,6a3.6,3.6,0,0,0,0,.77.86.86,0,0,0,.17.42.79.79,0,0,0,.4.19c.17,0,.39.06.65.08l0,.37H8.57l0-.35a6.47,6.47,0,0,0,.7-.1.81.81,0,0,0,.43-.23,1.12,1.12,0,0,0,.22-.55,8.49,8.49,0,0,0,.09-1l.21-5.43c0-.25,0-.47,0-.64a3,3,0,0,0,0-.47,1,1,0,0,0-.11-.33A1.1,1.1,0,0,0,9.84,46a1,1,0,0,0-.5-.27,4.49,4.49,0,0,0-.71-.1Z"/><path class="cls-1" d="M26.15,45.59a3.41,3.41,0,0,0-.68.1,1,1,0,0,0-.4.21.72.72,0,0,0-.19.39,2.68,2.68,0,0,0-.06.63v3a1.94,1.94,0,0,0,.56-.18,2.65,2.65,0,0,0,.54-.4c.22-.2.45-.43.7-.67l.73-.75.7-.76c.23-.26.42-.49.6-.71a1.28,1.28,0,0,0,.21-.33.29.29,0,0,0,0-.26.53.53,0,0,0-.31-.18,3.74,3.74,0,0,0-.65-.09l0-.36h3.76l0,.36a4.53,4.53,0,0,0-.69.11,2.82,2.82,0,0,0-.6.2,4.38,4.38,0,0,0-.57.35,6.06,6.06,0,0,0-.59.5c-.16.13-.35.31-.57.53L28,48l-.81.82-.82.83.94,1.16,1,1.18.91,1.07.71.78.54.53a2.6,2.6,0,0,0,.41.31,1.63,1.63,0,0,0,.43.18,5.67,5.67,0,0,0,.59.08l0,.37H29.41a4,4,0,0,0-.3-.43c-.13-.19-.3-.41-.49-.66s-.42-.5-.65-.79l-.73-.87c-.24-.3-.49-.59-.74-.88s-.49-.57-.7-.83a1.62,1.62,0,0,0-.39-.34.64.64,0,0,0-.35-.1l-.24,0V54a1.61,1.61,0,0,0,0,.42.51.51,0,0,0,.17.29.88.88,0,0,0,.4.15,3.78,3.78,0,0,0,.71.08v.37H22.3l0-.35a3.53,3.53,0,0,0,.7-.1.8.8,0,0,0,.4-.21.72.72,0,0,0,.19-.38,3.05,3.05,0,0,0,.05-.66V46.54a1.76,1.76,0,0,0,0-.42.52.52,0,0,0-.19-.28,1.06,1.06,0,0,0-.41-.16c-.18,0-.42,0-.73-.07l0-.38h3.88v.36Z"/><path class="cls-1" d="M37.7,45.23h2.56c.12.31.25.6.38.9s.26.59.4.89l3,6.62h0L47,46.9l.34-.82c.11-.28.22-.55.34-.83h2.57l0,.36a4.14,4.14,0,0,0-.74.1,1,1,0,0,0-.42.21.66.66,0,0,0-.19.39,3.22,3.22,0,0,0,0,.65L49.07,54a1.27,1.27,0,0,0,.07.42.63.63,0,0,0,.21.28,1.11,1.11,0,0,0,.43.16,4.31,4.31,0,0,0,.74.07l0,.38H46.78l0-.36a2.65,2.65,0,0,0,.6-.1.65.65,0,0,0,.35-.21.68.68,0,0,0,.14-.4,3.94,3.94,0,0,0,0-.63L47.67,47l0,0-1.82,4.23c-.6,1.39-1.19,2.81-1.79,4.26l-.52.05c-.59-1.38-1.19-2.73-1.79-4s-1.2-2.65-1.82-4l0,0-.21,6a3.6,3.6,0,0,0,0,.77.78.78,0,0,0,.18.42.72.72,0,0,0,.39.19c.17,0,.39.06.65.08l0,.37H37.61l0-.35a6.47,6.47,0,0,0,.7-.1.85.85,0,0,0,.44-.23,1.22,1.22,0,0,0,.22-.55,7,7,0,0,0,.08-1l.22-5.43c0-.25,0-.47,0-.64a3,3,0,0,0-.05-.47,1.27,1.27,0,0,0-.12-.33,1.1,1.1,0,0,0-.19-.25,1,1,0,0,0-.5-.27,4.53,4.53,0,0,0-.7-.1Z"/><path class="cls-1" d="M51.28,52.39a3.32,3.32,0,0,1,.92-2.31,3.1,3.1,0,0,1,2.24-1,3.29,3.29,0,0,1,1.31.25A2.93,2.93,0,0,1,57.39,51a3.3,3.3,0,0,1,.22,1.22,3.21,3.21,0,0,1-.24,1.28,3.64,3.64,0,0,1-.67,1,3.18,3.18,0,0,1-1,.69,3,3,0,0,1-1.25.26,3.38,3.38,0,0,1-1.3-.24,3.22,3.22,0,0,1-1-.68,3.17,3.17,0,0,1-.64-1A3.52,3.52,0,0,1,51.28,52.39ZM54.58,55a1.36,1.36,0,0,0,.79-.23,1.76,1.76,0,0,0,.55-.57,2.45,2.45,0,0,0,.31-.78,3.48,3.48,0,0,0,.11-.85,5.41,5.41,0,0,0-.11-1,3.53,3.53,0,0,0-.36-.94,2,2,0,0,0-.62-.7,1.52,1.52,0,0,0-.93-.27,1.5,1.5,0,0,0-.81.21,1.7,1.7,0,0,0-.54.56,3.1,3.1,0,0,0-.31.77,3.75,3.75,0,0,0-.1.87,4.62,4.62,0,0,0,.12,1A2.93,2.93,0,0,0,53,54a2.16,2.16,0,0,0,.62.72A1.51,1.51,0,0,0,54.58,55Z"/><path class="cls-1" d="M63.53,55.39a3.09,3.09,0,0,0,0-.45c0-.18,0-.33,0-.45a4.12,4.12,0,0,1-1.17.76,2.89,2.89,0,0,1-1.19.28,1.81,1.81,0,0,1-.72-.13,1.39,1.39,0,0,1-.57-.39,1.9,1.9,0,0,1-.38-.69,3.33,3.33,0,0,1-.14-1V50.8a2.69,2.69,0,0,0,0-.46.49.49,0,0,0-.13-.27.57.57,0,0,0-.28-.14,3.47,3.47,0,0,0-.49-.1l0-.31.67-.09.61-.11a4,4,0,0,0,.51-.11,2.07,2.07,0,0,0,.33-.09l.11.09a4.68,4.68,0,0,0,0,.55c0,.21,0,.4,0,.59s0,.37,0,.54v2a2.88,2.88,0,0,0,.1.84,1.66,1.66,0,0,0,.27.55.9.9,0,0,0,.4.3,1.33,1.33,0,0,0,.49.09,2.18,2.18,0,0,0,.88-.19,3.19,3.19,0,0,0,.86-.49V50.8a2.9,2.9,0,0,0,0-.46.5.5,0,0,0-.14-.27.75.75,0,0,0-.31-.15l-.55-.09,0-.31.7-.09.65-.12.52-.1a1.33,1.33,0,0,0,.31-.09l.11.09c0,.17,0,.36,0,.55s0,.4,0,.59,0,.37,0,.54,0,.32,0,.44v2.45a3,3,0,0,0,0,.48.4.4,0,0,0,.15.26.74.74,0,0,0,.31.14c.14,0,.34.07.58.1l0,.31-.65.07-.63.1a3.61,3.61,0,0,0-.54.12l-.37.1Z"/><path class="cls-1" d="M69.75,55.31H66.56l0-.33a3.1,3.1,0,0,0,.57-.09.64.64,0,0,0,.5-.57,5.18,5.18,0,0,0,0-.63V51c0-.2,0-.35,0-.47a.5.5,0,0,0-.14-.26.61.61,0,0,0-.29-.16l-.51-.1,0-.3.56-.12.59-.16.52-.15a3.2,3.2,0,0,0,.41-.14l.12.09c0,.14,0,.29,0,.44s0,.29,0,.44a4.32,4.32,0,0,1,1.2-.71,3.26,3.26,0,0,1,1.21-.26,2,2,0,0,1,.71.13,1.46,1.46,0,0,1,.58.38,1.85,1.85,0,0,1,.38.66,2.92,2.92,0,0,1,.14,1v2.85a2.1,2.1,0,0,0,0,.4.39.39,0,0,0,.14.24.56.56,0,0,0,.3.12,5,5,0,0,0,.53,0l0,.39h-3.1l0-.33a4.67,4.67,0,0,0,.53-.08.57.57,0,0,0,.3-.18.66.66,0,0,0,.14-.35c0-.15,0-.35,0-.61V51.53a1.65,1.65,0,0,0-.38-1.21,1.27,1.27,0,0,0-.94-.38,2.28,2.28,0,0,0-.85.18,4,4,0,0,0-.91.45v3.55a3.67,3.67,0,0,0,0,.4.47.47,0,0,0,.13.24.7.7,0,0,0,.31.11c.14,0,.32,0,.55.05Z"/><path class="cls-1" d="M76.72,47.13c0,.16,0,.36,0,.58s0,.44,0,.66,0,.42,0,.62,0,.35,0,.47l1.8,0,.09.07,0,.53H76.63v3.39a2.51,2.51,0,0,0,.08.67,1,1,0,0,0,.22.42.87.87,0,0,0,.33.22,1.85,1.85,0,0,0,.42.06,2.1,2.1,0,0,0,.48-.06l.49-.1.08.37a5.28,5.28,0,0,1-.89.34,3,3,0,0,1-.91.15,2.12,2.12,0,0,1-.57-.08,1.13,1.13,0,0,1-.45-.26,1.29,1.29,0,0,1-.31-.51,2.35,2.35,0,0,1-.11-.76V53c0-.28,0-.66,0-1.12V50h-1L74.48,50l0-.41,1-.07V48.6c0-.17,0-.35,0-.53v-.53l.32-.13.33-.13a1.47,1.47,0,0,0,.28-.12l.18-.1Z"/><path class="cls-1" d="M83,51.92a.86.86,0,0,0,0-.17V51a1.56,1.56,0,0,0-.25-.89,1,1,0,0,0-.83-.35,1.17,1.17,0,0,0-.52.11,1,1,0,0,0-.36.29,1.44,1.44,0,0,0-.21.41,1.85,1.85,0,0,0-.07.48.7.7,0,0,1-.46.14,1,1,0,0,1-.45-.11.34.34,0,0,1-.22-.33.59.59,0,0,1,.13-.35,1.93,1.93,0,0,1,.35-.35,2.89,2.89,0,0,1,.48-.33,3.84,3.84,0,0,1,1.92-.58,2.13,2.13,0,0,1,.63.09A1.31,1.31,0,0,1,84,50a2,2,0,0,1,.13.73c0,.42,0,.9,0,1.45s0,1.17,0,1.84a1,1,0,0,0,.16.63.5.5,0,0,0,.44.24,1.05,1.05,0,0,0,.55-.18l.19.28a1.67,1.67,0,0,1-.6.38,1.76,1.76,0,0,1-.7.15,1.26,1.26,0,0,1-.68-.2,1,1,0,0,1-.42-.68l-.32.21a3.11,3.11,0,0,1-.51.3,3.24,3.24,0,0,1-.6.27,1.84,1.84,0,0,1-.63.12,1.61,1.61,0,0,1-.63-.12,1.42,1.42,0,0,1-.48-.35,1.34,1.34,0,0,1-.32-.49,1.73,1.73,0,0,1-.11-.6,1.38,1.38,0,0,1,.31-.91,2,2,0,0,1,.81-.6,6.26,6.26,0,0,1,1-.29A9.7,9.7,0,0,1,83,51.92Zm0,2.2c0-.29,0-.58,0-.86s0-.57,0-.87l-.57.09a3.27,3.27,0,0,0-.56.12,2.13,2.13,0,0,0-.52.18,1.56,1.56,0,0,0-.41.28.76.76,0,0,0-.26.6,1.26,1.26,0,0,0,.23.75.82.82,0,0,0,.69.3,1.73,1.73,0,0,0,.71-.16A2.64,2.64,0,0,0,83,54.12Z"/><path class="cls-1" d="M89.09,55.31H85.83l0-.33a3,3,0,0,0,.55-.09.61.61,0,0,0,.32-.19.82.82,0,0,0,.15-.38,4.86,4.86,0,0,0,0-.63V50.92a1.91,1.91,0,0,0,0-.46.43.43,0,0,0-.13-.26.66.66,0,0,0-.29-.15c-.13,0-.3-.07-.51-.1l0-.31.66-.13.62-.14.51-.14.35-.11.1.09c0,.17,0,.36,0,.55a5.63,5.63,0,0,0,0,.58c0,.19,0,.38,0,.55v3.23a3.9,3.9,0,0,0,0,.4.4.4,0,0,0,.15.24.63.63,0,0,0,.33.12c.15,0,.35,0,.61,0ZM86.64,46.6a.73.73,0,0,1,.22-.56.71.71,0,0,1,.55-.22A.78.78,0,0,1,88,46a.76.76,0,0,1,.21.56.78.78,0,0,1-.21.56.82.82,0,0,1-.59.21.74.74,0,0,1-.55-.21A.79.79,0,0,1,86.64,46.6Z"/><path class="cls-1" d="M92.94,55.31h-3.2l0-.33a3.42,3.42,0,0,0,.57-.09.88.88,0,0,0,.34-.2.66.66,0,0,0,.15-.37,3.55,3.55,0,0,0,0-.63V51a2.91,2.91,0,0,0,0-.47.49.49,0,0,0-.13-.26.71.71,0,0,0-.3-.16l-.51-.1,0-.3.57-.12L91,49.4l.53-.15a2.56,2.56,0,0,0,.4-.14l.13.09c0,.14,0,.29,0,.44a3.15,3.15,0,0,0,0,.44,4.85,4.85,0,0,1,1.21-.71,3.3,3.3,0,0,1,1.21-.26,2.08,2.08,0,0,1,.71.13,1.46,1.46,0,0,1,.58.38,2,2,0,0,1,.38.66,2.92,2.92,0,0,1,.14,1v2.85a3.47,3.47,0,0,0,0,.4.43.43,0,0,0,.13.24.59.59,0,0,0,.3.12l.54,0,0,.39h-3.1L94,55a4,4,0,0,0,.53-.08.56.56,0,0,0,.31-.18.66.66,0,0,0,.13-.35,4.51,4.51,0,0,0,0-.61V51.53a1.65,1.65,0,0,0-.38-1.21,1.27,1.27,0,0,0-.94-.38,2.28,2.28,0,0,0-.85.18,4,4,0,0,0-.91.45v3.55a3.67,3.67,0,0,0,0,.4.41.41,0,0,0,.13.24.7.7,0,0,0,.31.11c.14,0,.32,0,.55.05Z"/><path class="cls-1" d="M105.89,54a2.69,2.69,0,0,0,0,.43.43.43,0,0,0,.15.29.79.79,0,0,0,.39.17,4.37,4.37,0,0,0,.76.07v.37h-3.78l0-.35a3.07,3.07,0,0,0,.65-.1.81.81,0,0,0,.39-.21.91.91,0,0,0,.19-.38,5.86,5.86,0,0,0,0-.66V46.54a2.58,2.58,0,0,0,0-.42.45.45,0,0,0-.18-.27.83.83,0,0,0-.39-.17c-.18,0-.42,0-.71-.07l0-.38h2a7.89,7.89,0,0,0,.84,0,6.36,6.36,0,0,1,.87-.06,6.88,6.88,0,0,1,1.27.11,3.58,3.58,0,0,1,1.13.37,2.28,2.28,0,0,1,.83.74,2.11,2.11,0,0,1,.31,1.19,2.67,2.67,0,0,1-.15.91,2.72,2.72,0,0,1-.42.79,3.19,3.19,0,0,1-.65.62,3.79,3.79,0,0,1-.82.44c.21.43.44.84.66,1.23s.41.75.6,1.08.35.61.51.85.27.44.37.58a5.42,5.42,0,0,0,.34.43,1.11,1.11,0,0,0,.33.26,1.49,1.49,0,0,0,.39.13,4.13,4.13,0,0,0,.61.07l0,.38h-2.45l-.32-.64c-.16-.28-.33-.62-.53-1l-.68-1.23c-.24-.44-.5-.89-.76-1.34,0-.07-.09-.13-.13-.19a.38.38,0,0,0-.14-.14.93.93,0,0,0-.24-.09,2.06,2.06,0,0,0-.39,0h-.52a1.62,1.62,0,0,1-.29,0V54Zm0-3.84h.67a2.88,2.88,0,0,0,1.91-.57,2.27,2.27,0,0,0,.68-1.83,1.86,1.86,0,0,0-.65-1.58,2.79,2.79,0,0,0-1.72-.49,1.66,1.66,0,0,0-.5.06.51.51,0,0,0-.26.17.44.44,0,0,0-.11.28,2.29,2.29,0,0,0,0,.39v3.55Z"/><path class="cls-1" d="M118.22,54.15a3.6,3.6,0,0,1-.69.71,4.4,4.4,0,0,1-.69.42,3.43,3.43,0,0,1-.59.2,3.14,3.14,0,0,1-.43.05,3,3,0,0,1-1.22-.25,3.14,3.14,0,0,1-.93-.68,3.07,3.07,0,0,1-.6-1,3.51,3.51,0,0,1-.22-1.21,3.2,3.2,0,0,1,.26-1.29,3.48,3.48,0,0,1,.68-1,3.12,3.12,0,0,1,1-.7,2.82,2.82,0,0,1,1.14-.25,2.74,2.74,0,0,1,.9.15,2.48,2.48,0,0,1,.76.44,2.17,2.17,0,0,1,.51.68,2,2,0,0,1,.19.89v.15a.42.42,0,0,1,0,.15c0,.19-.13.28-.3.28h-4a3.44,3.44,0,0,0,.22,1.24,2.53,2.53,0,0,0,.54.84,2.05,2.05,0,0,0,.74.48,2.32,2.32,0,0,0,.81.15,2.28,2.28,0,0,0,.82-.14,2.77,2.77,0,0,0,.82-.58Zm-1.56-2.76a.36.36,0,0,0,.28-.08A.39.39,0,0,0,117,51a1.4,1.4,0,0,0-.1-.54,1.23,1.23,0,0,0-.28-.43,1.19,1.19,0,0,0-.45-.3,1.63,1.63,0,0,0-.59-.1,1.25,1.25,0,0,0-.5.11,1.65,1.65,0,0,0-.47.34,2,2,0,0,0-.37.54,2.23,2.23,0,0,0-.22.73Z"/><path class="cls-1" d="M123.08,51.11a1.73,1.73,0,0,0-.17-.6,1.38,1.38,0,0,0-.35-.48,1.46,1.46,0,0,0-.49-.31,1.59,1.59,0,0,0-.62-.11,1.16,1.16,0,0,0-.37.07,1,1,0,0,0-.33.17.86.86,0,0,0-.22.29.87.87,0,0,0-.09.4.78.78,0,0,0,.13.46,1.65,1.65,0,0,0,.35.35,2.06,2.06,0,0,0,.49.26l.57.23.65.3a3.21,3.21,0,0,1,.57.35,1.49,1.49,0,0,1,.41.49,1.41,1.41,0,0,1,.15.67,1.65,1.65,0,0,1-.21.85,1.9,1.9,0,0,1-.55.58,2.53,2.53,0,0,1-.76.35,3.54,3.54,0,0,1-.85.11,3.64,3.64,0,0,1-.56,0,4,4,0,0,1-.52-.09l-.42-.1a3,3,0,0,0-.45-.07q0-.18,0-.45l-.06-.55c0-.19,0-.38-.07-.55a4,4,0,0,0-.08-.4l.36-.09a6.08,6.08,0,0,0,.33.68,2.15,2.15,0,0,0,.42.6,2.11,2.11,0,0,0,.56.42,1.73,1.73,0,0,0,.75.15,1.2,1.2,0,0,0,.72-.22.79.79,0,0,0,.32-.69.92.92,0,0,0-.13-.47,1.21,1.21,0,0,0-.32-.36,3,3,0,0,0-.46-.28l-.54-.24-.65-.28a2.76,2.76,0,0,1-.57-.36,1.6,1.6,0,0,1-.41-.49,1.45,1.45,0,0,1-.16-.68,1.55,1.55,0,0,1,.21-.83,1.92,1.92,0,0,1,.52-.58,2.53,2.53,0,0,1,.73-.32,2.89,2.89,0,0,1,.82-.11,3.3,3.3,0,0,1,.83.09,6.3,6.3,0,0,0,1,.1,4.64,4.64,0,0,0,0,.63c0,.2,0,.42,0,.65v.52Z"/><path class="cls-1" d="M124.74,52.39a3.44,3.44,0,0,1,.92-2.31,3.1,3.1,0,0,1,1-.7,3,3,0,0,1,1.24-.26,3.24,3.24,0,0,1,1.3.25,2.8,2.8,0,0,1,1,.67,3.09,3.09,0,0,1,.65,1,3.52,3.52,0,0,1,.22,1.22,3.21,3.21,0,0,1-.25,1.28,3.44,3.44,0,0,1-.67,1,3.08,3.08,0,0,1-1,.69,2.9,2.9,0,0,1-1.24.26,3.38,3.38,0,0,1-1.3-.24,3.22,3.22,0,0,1-1-.68,3.17,3.17,0,0,1-.64-1A3.31,3.31,0,0,1,124.74,52.39ZM128,55a1.4,1.4,0,0,0,.8-.23,1.87,1.87,0,0,0,.55-.57,2.71,2.71,0,0,0,.31-.78,3.47,3.47,0,0,0,.1-.85,5.41,5.41,0,0,0-.11-1,3.22,3.22,0,0,0-.36-.94,1.92,1.92,0,0,0-.62-.7,1.5,1.5,0,0,0-.93-.27,1.47,1.47,0,0,0-.8.21,1.7,1.7,0,0,0-.54.56,2.27,2.27,0,0,0-.31.77,3.77,3.77,0,0,0-.11.87,4.62,4.62,0,0,0,.12,1,3.47,3.47,0,0,0,.36.95,2.28,2.28,0,0,0,.62.72A1.51,1.51,0,0,0,128,55Z"/><path class="cls-1" d="M135.61,55.31h-3.47l0-.33a3,3,0,0,0,.55-.09.49.49,0,0,0,.3-.19.83.83,0,0,0,.16-.38,5.18,5.18,0,0,0,0-.63V51a2.91,2.91,0,0,0,0-.47.49.49,0,0,0-.13-.26.65.65,0,0,0-.3-.16l-.53-.1,0-.3.58-.11.59-.16.53-.16a2,2,0,0,0,.4-.14l.13.09a4.64,4.64,0,0,0-.07.64c0,.21,0,.43,0,.64.23-.27.43-.5.6-.68a2.74,2.74,0,0,1,.47-.41,1.16,1.16,0,0,1,.39-.21,1,1,0,0,1,.37-.07,1.5,1.5,0,0,1,.29,0,1.53,1.53,0,0,1,.27.11.91.91,0,0,1,.21.18.47.47,0,0,1,.07.27.69.69,0,0,1-.26.46,3.84,3.84,0,0,1-.58.47,1.5,1.5,0,0,0-.35-.26.91.91,0,0,0-.41-.09.88.88,0,0,0-.53.21,1.47,1.47,0,0,0-.46.61.65.65,0,0,0-.07.21c0,.06,0,.13,0,.24v2.57a2.06,2.06,0,0,0,0,.4.37.37,0,0,0,.17.24,1.14,1.14,0,0,0,.4.11c.17,0,.42,0,.72.05Z"/><path class="cls-1" d="M139.45,47.13c0,.16,0,.36,0,.58s0,.44,0,.66,0,.42,0,.62,0,.35,0,.47l1.8,0,.08.07,0,.53h-1.85v3.39a2.51,2.51,0,0,0,.08.67,1,1,0,0,0,.22.42.8.8,0,0,0,.33.22,1.76,1.76,0,0,0,.41.06,2.25,2.25,0,0,0,.49-.06l.49-.1.07.37a4.6,4.6,0,0,1-.88.34,3,3,0,0,1-.91.15,1.94,1.94,0,0,1-.56-.08,1.17,1.17,0,0,1-.46-.26,1.29,1.29,0,0,1-.31-.51,2.1,2.1,0,0,1-.11-.76V53c0-.28,0-.66,0-1.12V50h-1l-.07-.07,0-.41,1-.07V48.6c0-.17,0-.35,0-.53v-.53l.32-.13.33-.13a1.81,1.81,0,0,0,.28-.12l.18-.1Z"/></svg>