<svg id="Layer_1" data-name="Layer 1" xmlns="http://www.w3.org/2000/svg" viewBox="0 0 150 65"><defs><style>.cls-1{fill:#717989;}.cls-2,.cls-3{fill:#fff;}.cls-2{opacity:0.7;}</style></defs><title>client logos</title><polygon class="cls-1" points="19.54 17.8 7.33 21.18 1.09 32.21 4.48 44.41 15.51 50.65 27.71 47.27 33.95 36.24 30.56 24.03 19.54 17.8"/><path class="cls-1" d="M40.76,27.13h4L47,36.28l2.59-9.15h2.93l2.59,9.15,2.26-9.15h4l-4,14.52H53.4l-2.33-8.2-2.32,8.2H44.83Z"/><path class="cls-1" d="M60,36.46a5.54,5.54,0,1,1,5.54,5.48A5.46,5.46,0,0,1,60,36.46Zm7.63,0a2.09,2.09,0,1,0-2.09,2.16A2,2,0,0,0,67.66,36.46Z"/><path class="cls-1" d="M78.68,31.07v3.82a2.5,2.5,0,0,0-3.12,2.47v4.29H72.12V31.28h3.44v1.93A3.1,3.1,0,0,1,78.68,31.07Z"/><path class="cls-1" d="M79.65,26.5h3.44V41.65H79.65Z"/><path class="cls-1" d="M95.13,27.13V41.65H91.69V40.7a3.67,3.67,0,0,1-3,1.24c-2.78,0-4.88-2.36-4.88-5.48S86,31,88.74,31a3.64,3.64,0,0,1,3,1.24v-5.1Zm-3.44,9.33a2.18,2.18,0,1,0-2.18,2.26A2.12,2.12,0,0,0,91.69,36.46Z"/><path class="cls-1" d="M102.5,37h-1.33v4.69H97.46V27.13h5.81a5,5,0,0,1,5.22,5A4.69,4.69,0,0,1,106,36.28l3,5.37h-4Zm-1.33-3.15h2a1.5,1.5,0,0,0,1.56-1.62,1.53,1.53,0,0,0-1.56-1.64h-2Z"/><path class="cls-1" d="M114.43,39a2.65,2.65,0,0,0,1.89-.72L118.81,40a5.47,5.47,0,0,1-4.47,1.93c-3.58,0-5.8-2.39-5.8-5.46A5.34,5.34,0,0,1,114.05,31a5.25,5.25,0,0,1,5.36,5.45,5.17,5.17,0,0,1-.15,1.29H112.1A2.25,2.25,0,0,0,114.43,39Zm1.62-3.65a1.89,1.89,0,0,0-2-1.45,2,2,0,0,0-2,1.45Z"/><path class="cls-1" d="M136.4,35.3v6.35h-3.47V35.7c0-.9-.41-1.46-1.28-1.46s-1.44.71-1.44,1.75v5.66h-3.44V35.7c0-.9-.44-1.46-1.31-1.46S124,35,124,36v5.66h-3.44V31.28H124v1a3.3,3.3,0,0,1,2.8-1.26,3,3,0,0,1,2.66,1.32,3.61,3.61,0,0,1,3-1.32C134.88,31,136.4,32.6,136.4,35.3Z"/><path class="cls-1" d="M137.43,29.15a2,2,0,1,1,1,1.1A2,2,0,0,1,137.43,29.15Zm.14,2.13H141V41.65h-3.44Z"/><path class="cls-1" d="M146.75,34.57v3c0,1,.77,1,2.16,1v3.11c-4.24.52-5.61-.79-5.61-4v-3.1h-1.2V31.28h1.2V29.41l3.45-1v2.91h2.16v3.29Z"/><path class="cls-2" d="M15.52,28.76h-.09l-1.59,4.66-.19.56a.75.75,0,0,0,0,.55l1.54,4.54a.86.86,0,0,0,.5.52l.3.11L17.58,35l.22-.64a.86.86,0,0,0,0-.55l-1.54-4.51A.83.83,0,0,0,15.52,28.76Z"/><path class="cls-2" d="M26.46,28.45H23.12a.44.44,0,0,0-.43.3L21.14,33.3l-.13.38a1.34,1.34,0,0,0,0,.84l1.67,4.91a.43.43,0,0,0,.42.28l.15,0L26.88,29A.44.44,0,0,0,26.46,28.45Z"/><path class="cls-3" d="M15.56,40H12.22a.46.46,0,0,1-.43-.3L8.16,29a.45.45,0,0,1,.43-.59h3.34a.44.44,0,0,1,.42.3L16,39.41A.45.45,0,0,1,15.56,40Z"/><path class="cls-3" d="M22.83,40H19.48a.44.44,0,0,1-.42-.3L15.43,29a.44.44,0,0,1,.42-.59h3.34a.44.44,0,0,1,.43.3l3.63,10.66A.45.45,0,0,1,22.83,40Z"/></svg>